<svg width="516" height="237" viewBox="0 0 516 237" fill="none" xmlns="http://www.w3.org/2000/svg">
<path d="M160.923 64.4545V79H159.162V66.017H151.832V79H150.071V64.4545H160.923ZM168.681 79.2273C167.696 79.2273 166.832 78.9929 166.088 78.5241C165.35 78.0554 164.772 77.3996 164.355 76.5568C163.944 75.714 163.738 74.7292 163.738 73.6023C163.738 72.4659 163.944 71.474 164.355 70.6264C164.772 69.7789 165.35 69.1207 166.088 68.652C166.832 68.1832 167.696 67.9489 168.681 67.9489C169.666 67.9489 170.527 68.1832 171.266 68.652C172.009 69.1207 172.587 69.7789 172.999 70.6264C173.416 71.474 173.624 72.4659 173.624 73.6023C173.624 74.7292 173.416 75.714 172.999 76.5568C172.587 77.3996 172.009 78.0554 171.266 78.5241C170.527 78.9929 169.666 79.2273 168.681 79.2273ZM168.681 77.7216C169.429 77.7216 170.044 77.5298 170.527 77.1463C171.01 76.7628 171.368 76.2585 171.6 75.6335C171.832 75.0085 171.948 74.3314 171.948 73.6023C171.948 72.8731 171.832 72.1937 171.6 71.5639C171.368 70.9342 171.01 70.4252 170.527 70.0369C170.044 69.6487 169.429 69.4545 168.681 69.4545C167.933 69.4545 167.317 69.6487 166.834 70.0369C166.351 70.4252 165.994 70.9342 165.762 71.5639C165.53 72.1937 165.414 72.8731 165.414 73.6023C165.414 74.3314 165.53 75.0085 165.762 75.6335C165.994 76.2585 166.351 76.7628 166.834 77.1463C167.317 77.5298 167.933 77.7216 168.681 77.7216ZM174.757 69.6534V68.0909H183.62V69.6534H180.041V79H178.365V69.6534H174.757ZM189.931 79.2273C188.946 79.2273 188.082 78.9929 187.338 78.5241C186.6 78.0554 186.022 77.3996 185.605 76.5568C185.194 75.714 184.988 74.7292 184.988 73.6023C184.988 72.4659 185.194 71.474 185.605 70.6264C186.022 69.7789 186.6 69.1207 187.338 68.652C188.082 68.1832 188.946 67.9489 189.931 67.9489C190.916 67.9489 191.777 68.1832 192.516 68.652C193.259 69.1207 193.837 69.7789 194.249 70.6264C194.666 71.474 194.874 72.4659 194.874 73.6023C194.874 74.7292 194.666 75.714 194.249 76.5568C193.837 77.3996 193.259 78.0554 192.516 78.5241C191.777 78.9929 190.916 79.2273 189.931 79.2273ZM189.931 77.7216C190.679 77.7216 191.294 77.5298 191.777 77.1463C192.26 76.7628 192.618 76.2585 192.85 75.6335C193.082 75.0085 193.198 74.3314 193.198 73.6023C193.198 72.8731 193.082 72.1937 192.85 71.5639C192.618 70.9342 192.26 70.4252 191.777 70.0369C191.294 69.6487 190.679 69.4545 189.931 69.4545C189.183 69.4545 188.567 69.6487 188.084 70.0369C187.601 70.4252 187.244 70.9342 187.012 71.5639C186.78 72.1937 186.664 72.8731 186.664 73.6023C186.664 74.3314 186.78 75.0085 187.012 75.6335C187.244 76.2585 187.601 76.7628 188.084 77.1463C188.567 77.5298 189.183 77.7216 189.931 77.7216ZM197.433 79V68.0909H199.109V72.8352H200.217L204.137 68.0909H206.296L201.893 73.3466L206.353 79H204.194L200.614 74.3977H199.109V79H197.433ZM212.157 79.2273C211.172 79.2273 210.308 78.9929 209.565 78.5241C208.826 78.0554 208.249 77.3996 207.832 76.5568C207.42 75.714 207.214 74.7292 207.214 73.6023C207.214 72.4659 207.42 71.474 207.832 70.6264C208.249 69.7789 208.826 69.1207 209.565 68.652C210.308 68.1832 211.172 67.9489 212.157 67.9489C213.142 67.9489 214.004 68.1832 214.743 68.652C215.486 69.1207 216.064 69.7789 216.475 70.6264C216.892 71.474 217.1 72.4659 217.1 73.6023C217.1 74.7292 216.892 75.714 216.475 76.5568C216.064 77.3996 215.486 78.0554 214.743 78.5241C214.004 78.9929 213.142 79.2273 212.157 79.2273ZM212.157 77.7216C212.905 77.7216 213.521 77.5298 214.004 77.1463C214.487 76.7628 214.844 76.2585 215.076 75.6335C215.308 75.0085 215.424 74.3314 215.424 73.6023C215.424 72.8731 215.308 72.1937 215.076 71.5639C214.844 70.9342 214.487 70.4252 214.004 70.0369C213.521 69.6487 212.905 69.4545 212.157 69.4545C211.409 69.4545 210.794 69.6487 210.311 70.0369C209.828 70.4252 209.47 70.9342 209.238 71.5639C209.006 72.1937 208.89 72.8731 208.89 73.6023C208.89 74.3314 209.006 75.0085 209.238 75.6335C209.47 76.2585 209.828 76.7628 210.311 77.1463C210.794 77.5298 211.409 77.7216 212.157 77.7216ZM219.659 79V68.0909H224.119C225.294 68.0909 226.226 68.3561 226.918 68.8864C227.609 69.4167 227.955 70.1174 227.955 70.9886C227.955 71.6515 227.758 72.1652 227.365 72.5298C226.972 72.8897 226.468 73.1335 225.852 73.2614C226.255 73.3182 226.645 73.4602 227.024 73.6875C227.408 73.9148 227.725 74.2273 227.976 74.625C228.227 75.018 228.352 75.5009 228.352 76.0739C228.352 76.6326 228.21 77.1321 227.926 77.5724C227.642 78.0128 227.235 78.3608 226.705 78.6165C226.174 78.8722 225.54 79 224.801 79H219.659ZM221.25 77.4659H224.801C225.379 77.4659 225.831 77.3286 226.158 77.054C226.484 76.7794 226.648 76.4053 226.648 75.9318C226.648 75.3684 226.484 74.9257 226.158 74.6037C225.831 74.277 225.379 74.1136 224.801 74.1136H221.25V77.4659ZM221.25 72.6648H224.119C224.569 72.6648 224.955 72.6032 225.277 72.4801C225.599 72.3523 225.845 72.1723 226.016 71.9403C226.191 71.7036 226.278 71.4242 226.278 71.1023C226.278 70.643 226.087 70.2831 225.703 70.0227C225.32 69.7576 224.792 69.625 224.119 69.625H221.25V72.6648ZM234.1 79.2557C233.408 79.2557 232.781 79.1255 232.218 78.8651C231.654 78.5999 231.207 78.2188 230.875 77.7216C230.544 77.2197 230.378 76.6136 230.378 75.9034C230.378 75.2784 230.501 74.7718 230.748 74.3835C230.994 73.9905 231.323 73.6828 231.735 73.4602C232.147 73.2377 232.601 73.072 233.098 72.9631C233.6 72.8494 234.105 72.7595 234.611 72.6932C235.274 72.608 235.811 72.544 236.223 72.5014C236.64 72.4541 236.943 72.3759 237.132 72.267C237.327 72.1581 237.424 71.9687 237.424 71.6989V71.642C237.424 70.9413 237.232 70.3968 236.848 70.0085C236.47 69.6203 235.894 69.4261 235.123 69.4261C234.322 69.4261 233.695 69.6013 233.24 69.9517C232.786 70.3021 232.466 70.6761 232.282 71.0739L230.691 70.5057C230.975 69.8428 231.354 69.3267 231.827 68.9574C232.305 68.5833 232.826 68.3229 233.39 68.1761C233.958 68.0246 234.516 67.9489 235.066 67.9489C235.416 67.9489 235.819 67.9915 236.273 68.0767C236.732 68.1572 237.175 68.3253 237.601 68.581C238.032 68.8366 238.39 69.2225 238.674 69.7386C238.958 70.2547 239.1 70.946 239.1 71.8125V79H237.424V77.5227H237.338C237.225 77.7595 237.035 78.0128 236.77 78.2827C236.505 78.5526 236.152 78.7822 235.712 78.9716C235.272 79.161 234.734 79.2557 234.1 79.2557ZM234.355 77.75C235.018 77.75 235.577 77.6198 236.032 77.3594C236.491 77.099 236.837 76.7628 237.069 76.3509C237.305 75.9389 237.424 75.5057 237.424 75.0511V73.517C237.353 73.6023 237.196 73.6804 236.955 73.7514C236.718 73.8177 236.444 73.8769 236.131 73.929C235.823 73.9763 235.523 74.0189 235.229 74.0568C234.94 74.09 234.706 74.1184 234.526 74.142C234.09 74.1989 233.683 74.2912 233.304 74.419C232.93 74.5421 232.627 74.7292 232.395 74.9801C232.168 75.2263 232.054 75.5625 232.054 75.9886C232.054 76.571 232.27 77.0114 232.701 77.3097C233.136 77.6032 233.688 77.75 234.355 77.75ZM248.722 79V69.625H245.824C245.17 69.625 244.657 69.7765 244.283 70.0795C243.909 70.3826 243.722 70.7992 243.722 71.3295C243.722 71.8504 243.89 72.2599 244.226 72.5582C244.567 72.8565 245.033 73.0057 245.625 73.0057H249.148V74.5682H245.625C244.886 74.5682 244.25 74.438 243.714 74.1776C243.179 73.9171 242.768 73.5455 242.479 73.0625C242.19 72.5748 242.045 71.9972 242.045 71.3295C242.045 70.6572 242.197 70.0795 242.5 69.5966C242.803 69.1136 243.236 68.742 243.8 68.4815C244.368 68.2211 245.043 68.0909 245.824 68.0909H250.312V79H248.722ZM241.449 79L244.545 73.5739H246.364L243.267 79H241.449ZM259.015 79V68.0909H267.594V79H265.918V69.6534H260.691V79H259.015ZM275.229 79.2273C274.178 79.2273 273.271 78.9953 272.509 78.5312C271.751 78.0625 271.167 77.4091 270.755 76.571C270.347 75.7282 270.144 74.7481 270.144 73.6307C270.144 72.5133 270.347 71.5284 270.755 70.6761C271.167 69.8191 271.739 69.1515 272.473 68.6733C273.212 68.1903 274.074 67.9489 275.059 67.9489C275.627 67.9489 276.188 68.0436 276.742 68.233C277.296 68.4223 277.8 68.7301 278.255 69.1562C278.709 69.5777 279.071 70.1364 279.341 70.8324C279.611 71.5284 279.746 72.3854 279.746 73.4034V74.1136H271.337V72.6648H278.042C278.042 72.0492 277.918 71.5 277.672 71.017C277.431 70.5341 277.085 70.1529 276.635 69.8736C276.19 69.5942 275.665 69.4545 275.059 69.4545C274.391 69.4545 273.813 69.6203 273.326 69.9517C272.843 70.2784 272.471 70.7045 272.211 71.2301C271.95 71.7557 271.82 72.3191 271.82 72.9205V73.8864C271.82 74.7102 271.962 75.4086 272.246 75.9815C272.535 76.5497 272.935 76.983 273.446 77.2812C273.958 77.5748 274.552 77.7216 275.229 77.7216C275.669 77.7216 276.067 77.66 276.422 77.5369C276.782 77.4091 277.092 77.2197 277.353 76.9688C277.613 76.7131 277.814 76.3958 277.956 76.017L279.576 76.4716C279.405 77.0208 279.119 77.5038 278.716 77.9205C278.314 78.3324 277.817 78.6544 277.225 78.8864C276.633 79.1136 275.968 79.2273 275.229 79.2273ZM282.296 83.0909V68.0909H283.915V69.8239H284.114C284.237 69.6345 284.408 69.393 284.625 69.0994C284.848 68.8011 285.165 68.536 285.577 68.304C285.994 68.0672 286.557 67.9489 287.267 67.9489C288.186 67.9489 288.996 68.1785 289.696 68.6378C290.397 69.0971 290.944 69.7481 291.337 70.5909C291.73 71.4337 291.926 72.428 291.926 73.5739C291.926 74.7292 291.73 75.7306 291.337 76.5781C290.944 77.4209 290.4 78.0743 289.703 78.5384C289.007 78.9976 288.205 79.2273 287.296 79.2273C286.595 79.2273 286.034 79.1113 285.613 78.8793C285.191 78.6425 284.867 78.375 284.64 78.0767C284.412 77.7737 284.237 77.5227 284.114 77.3239H283.972V83.0909H282.296ZM283.944 73.5455C283.944 74.3693 284.064 75.0961 284.306 75.7259C284.547 76.3509 284.9 76.8409 285.364 77.196C285.828 77.5464 286.396 77.7216 287.069 77.7216C287.769 77.7216 288.354 77.5369 288.823 77.1676C289.296 76.7936 289.651 76.2917 289.888 75.6619C290.13 75.0275 290.25 74.322 290.25 73.5455C290.25 72.7784 290.132 72.0871 289.895 71.4716C289.663 70.8513 289.31 70.3613 288.837 70.0014C288.368 69.6368 287.779 69.4545 287.069 69.4545C286.387 69.4545 285.814 69.6274 285.35 69.973C284.886 70.3139 284.535 70.7921 284.299 71.4077C284.062 72.0185 283.944 72.7311 283.944 73.5455ZM299.057 79.2273C298.006 79.2273 297.099 78.9953 296.337 78.5312C295.579 78.0625 294.995 77.4091 294.583 76.571C294.176 75.7282 293.972 74.7481 293.972 73.6307C293.972 72.5133 294.176 71.5284 294.583 70.6761C294.995 69.8191 295.568 69.1515 296.301 68.6733C297.04 68.1903 297.902 67.9489 298.887 67.9489C299.455 67.9489 300.016 68.0436 300.57 68.233C301.124 68.4223 301.628 68.7301 302.083 69.1562C302.537 69.5777 302.9 70.1364 303.169 70.8324C303.439 71.5284 303.574 72.3854 303.574 73.4034V74.1136H295.165V72.6648H301.87C301.87 72.0492 301.747 71.5 301.5 71.017C301.259 70.5341 300.913 70.1529 300.463 69.8736C300.018 69.5942 299.493 69.4545 298.887 69.4545C298.219 69.4545 297.641 69.6203 297.154 69.9517C296.671 70.2784 296.299 70.7045 296.039 71.2301C295.778 71.7557 295.648 72.3191 295.648 72.9205V73.8864C295.648 74.7102 295.79 75.4086 296.074 75.9815C296.363 76.5497 296.763 76.983 297.275 77.2812C297.786 77.5748 298.38 77.7216 299.057 77.7216C299.498 77.7216 299.895 77.66 300.25 77.5369C300.61 77.4091 300.92 77.2197 301.181 76.9688C301.441 76.7131 301.642 76.3958 301.784 76.017L303.404 76.4716C303.233 77.0208 302.947 77.5038 302.544 77.9205C302.142 78.3324 301.645 78.6544 301.053 78.8864C300.461 79.1136 299.796 79.2273 299.057 79.2273ZM304.959 82.125V77.4375H305.868C306.091 77.2055 306.283 76.9545 306.444 76.6847C306.605 76.4148 306.744 76.0952 306.863 75.7259C306.986 75.3518 307.09 74.8973 307.175 74.3622C307.26 73.8224 307.336 73.1714 307.402 72.4091L307.772 68.0909H314.703V77.4375H316.38V82.125H314.703V79H306.635V82.125H304.959ZM307.772 77.4375H313.027V69.6534H309.334L309.05 72.4091C308.932 73.5502 308.785 74.5469 308.61 75.3991C308.435 76.2514 308.155 76.9309 307.772 77.4375ZM321.815 79.2557C321.123 79.2557 320.496 79.1255 319.933 78.8651C319.369 78.5999 318.922 78.2188 318.59 77.7216C318.259 77.2197 318.093 76.6136 318.093 75.9034C318.093 75.2784 318.216 74.7718 318.462 74.3835C318.709 73.9905 319.038 73.6828 319.45 73.4602C319.862 73.2377 320.316 73.072 320.813 72.9631C321.315 72.8494 321.819 72.7595 322.326 72.6932C322.989 72.608 323.526 72.544 323.938 72.5014C324.355 72.4541 324.658 72.3759 324.847 72.267C325.041 72.1581 325.138 71.9687 325.138 71.6989V71.642C325.138 70.9413 324.947 70.3968 324.563 70.0085C324.184 69.6203 323.609 69.4261 322.837 69.4261C322.037 69.4261 321.41 69.6013 320.955 69.9517C320.501 70.3021 320.181 70.6761 319.996 71.0739L318.406 70.5057C318.69 69.8428 319.068 69.3267 319.542 68.9574C320.02 68.5833 320.541 68.3229 321.104 68.1761C321.673 68.0246 322.231 67.9489 322.781 67.9489C323.131 67.9489 323.533 67.9915 323.988 68.0767C324.447 68.1572 324.89 68.3253 325.316 68.581C325.747 68.8366 326.104 69.2225 326.388 69.7386C326.673 70.2547 326.815 70.946 326.815 71.8125V79H325.138V77.5227H325.053C324.94 77.7595 324.75 78.0128 324.485 78.2827C324.22 78.5526 323.867 78.7822 323.427 78.9716C322.987 79.161 322.449 79.2557 321.815 79.2557ZM322.07 77.75C322.733 77.75 323.292 77.6198 323.746 77.3594C324.206 77.099 324.551 76.7628 324.783 76.3509C325.02 75.9389 325.138 75.5057 325.138 75.0511V73.517C325.067 73.6023 324.911 73.6804 324.67 73.7514C324.433 73.8177 324.158 73.8769 323.846 73.929C323.538 73.9763 323.237 74.0189 322.944 74.0568C322.655 74.09 322.421 74.1184 322.241 74.142C321.805 74.1989 321.398 74.2912 321.019 74.419C320.645 74.5421 320.342 74.7292 320.11 74.9801C319.883 75.2263 319.769 75.5625 319.769 75.9886C319.769 76.571 319.985 77.0114 320.415 77.3097C320.851 77.6032 321.403 77.75 322.07 77.75ZM338.283 68.0909V79H336.607V68.0909H338.283ZM337.63 73.2898V74.8523C337.251 74.9943 336.874 75.1198 336.5 75.2287C336.126 75.3329 335.733 75.4157 335.321 75.4773C334.909 75.5341 334.457 75.5625 333.965 75.5625C332.729 75.5625 331.737 75.2287 330.989 74.5611C330.246 73.8935 329.874 72.892 329.874 71.5568V68.0625H331.55V71.5568C331.55 72.1155 331.657 72.5748 331.87 72.9347C332.083 73.2945 332.372 73.562 332.736 73.7372C333.101 73.9124 333.51 74 333.965 74C334.675 74 335.317 73.9361 335.89 73.8082C336.467 73.6757 337.047 73.5028 337.63 73.2898ZM344.569 79.2557C343.877 79.2557 343.25 79.1255 342.686 78.8651C342.123 78.5999 341.676 78.2188 341.344 77.7216C341.013 77.2197 340.847 76.6136 340.847 75.9034C340.847 75.2784 340.97 74.7718 341.216 74.3835C341.462 73.9905 341.792 73.6828 342.203 73.4602C342.615 73.2377 343.07 73.072 343.567 72.9631C344.069 72.8494 344.573 72.7595 345.08 72.6932C345.743 72.608 346.28 72.544 346.692 72.5014C347.109 72.4541 347.412 72.3759 347.601 72.267C347.795 72.1581 347.892 71.9687 347.892 71.6989V71.642C347.892 70.9413 347.701 70.3968 347.317 70.0085C346.938 69.6203 346.363 69.4261 345.591 69.4261C344.791 69.4261 344.164 69.6013 343.709 69.9517C343.255 70.3021 342.935 70.6761 342.75 71.0739L341.159 70.5057C341.444 69.8428 341.822 69.3267 342.296 68.9574C342.774 68.5833 343.295 68.3229 343.858 68.1761C344.426 68.0246 344.985 67.9489 345.534 67.9489C345.885 67.9489 346.287 67.9915 346.742 68.0767C347.201 68.1572 347.644 68.3253 348.07 68.581C348.501 68.8366 348.858 69.2225 349.142 69.7386C349.426 70.2547 349.569 70.946 349.569 71.8125V79H347.892V77.5227H347.807C347.694 77.7595 347.504 78.0128 347.239 78.2827C346.974 78.5526 346.621 78.7822 346.181 78.9716C345.74 79.161 345.203 79.2557 344.569 79.2557ZM344.824 77.75C345.487 77.75 346.046 77.6198 346.5 77.3594C346.96 77.099 347.305 76.7628 347.537 76.3509C347.774 75.9389 347.892 75.5057 347.892 75.0511V73.517C347.821 73.6023 347.665 73.6804 347.424 73.7514C347.187 73.8177 346.912 73.8769 346.6 73.929C346.292 73.9763 345.991 74.0189 345.698 74.0568C345.409 74.09 345.175 74.1184 344.995 74.142C344.559 74.1989 344.152 74.2912 343.773 74.419C343.399 74.5421 343.096 74.7292 342.864 74.9801C342.637 75.2263 342.523 75.5625 342.523 75.9886C342.523 76.571 342.739 77.0114 343.169 77.3097C343.605 77.6032 344.157 77.75 344.824 77.75ZM189.939 100.528L195.194 92.0909H197.126V103H195.45V94.5625L190.223 103H188.263V92.0909H189.939V100.528ZM199.514 100.216H201.304C201.342 100.708 201.565 101.082 201.972 101.338C202.384 101.594 202.919 101.722 203.577 101.722C204.249 101.722 204.825 101.584 205.303 101.31C205.781 101.03 206.02 100.58 206.02 99.9602C206.02 99.5956 205.93 99.2784 205.75 99.0085C205.57 98.7339 205.317 98.5208 204.99 98.3693C204.664 98.2178 204.278 98.142 203.833 98.142H201.958V96.6364H203.833C204.5 96.6364 204.993 96.4848 205.31 96.1818C205.632 95.8788 205.793 95.5 205.793 95.0455C205.793 94.5578 205.62 94.1671 205.274 93.8736C204.929 93.5753 204.439 93.4261 203.804 93.4261C203.165 93.4261 202.632 93.5705 202.206 93.8594C201.78 94.1435 201.555 94.5104 201.531 94.9602H199.77C199.789 94.3731 199.969 93.8546 200.31 93.4048C200.651 92.9503 201.115 92.5952 201.702 92.3395C202.289 92.0791 202.961 91.9489 203.719 91.9489C204.486 91.9489 205.151 92.0838 205.715 92.3537C206.283 92.6188 206.721 92.9811 207.029 93.4403C207.341 93.8949 207.497 94.411 207.497 94.9886C207.497 95.6042 207.325 96.1013 206.979 96.4801C206.633 96.8589 206.2 97.1288 205.679 97.2898V97.4034C206.091 97.4318 206.449 97.5644 206.752 97.8011C207.059 98.0331 207.298 98.3385 207.469 98.7173C207.639 99.0914 207.725 99.5057 207.725 99.9602C207.725 100.623 207.547 101.201 207.192 101.693C206.837 102.181 206.349 102.56 205.729 102.83C205.109 103.095 204.401 103.227 203.605 103.227C202.834 103.227 202.142 103.102 201.531 102.851C200.921 102.595 200.435 102.242 200.075 101.793C199.72 101.338 199.533 100.812 199.514 100.216ZM214.511 103.227C213.526 103.227 212.662 102.993 211.919 102.524C211.18 102.055 210.602 101.4 210.186 100.557C209.774 99.714 209.568 98.7292 209.568 97.6023C209.568 96.4659 209.774 95.474 210.186 94.6264C210.602 93.7789 211.18 93.1207 211.919 92.652C212.662 92.1832 213.526 91.9489 214.511 91.9489C215.496 91.9489 216.357 92.1832 217.096 92.652C217.839 93.1207 218.417 93.7789 218.829 94.6264C219.246 95.474 219.454 96.4659 219.454 97.6023C219.454 98.7292 219.246 99.714 218.829 100.557C218.417 101.4 217.839 102.055 217.096 102.524C216.357 102.993 215.496 103.227 214.511 103.227ZM214.511 101.722C215.259 101.722 215.874 101.53 216.357 101.146C216.84 100.763 217.198 100.259 217.43 99.6335C217.662 99.0085 217.778 98.3314 217.778 97.6023C217.778 96.8731 217.662 96.1937 217.43 95.5639C217.198 94.9342 216.84 94.4252 216.357 94.0369C215.874 93.6487 215.259 93.4545 214.511 93.4545C213.763 93.4545 213.147 93.6487 212.664 94.0369C212.181 94.4252 211.824 94.9342 211.592 95.5639C211.36 96.1937 211.244 96.8731 211.244 97.6023C211.244 98.3314 211.36 99.0085 211.592 99.6335C211.824 100.259 212.181 100.763 212.664 101.146C213.147 101.53 213.763 101.722 214.511 101.722ZM230.109 88L230.961 89.0227C230.63 89.3447 230.247 89.5696 229.811 89.6974C229.375 89.8253 228.883 89.9034 228.334 89.9318C227.784 89.9602 227.174 89.9886 226.501 90.017C225.744 90.0455 225.116 90.2301 224.619 90.571C224.122 90.9119 223.738 91.4044 223.469 92.0483C223.199 92.6922 223.026 93.483 222.95 94.4205H223.092C223.461 93.7386 223.973 93.2367 224.626 92.9148C225.28 92.5928 225.98 92.4318 226.729 92.4318C227.581 92.4318 228.348 92.6307 229.03 93.0284C229.711 93.4261 230.251 94.0156 230.649 94.7969C231.047 95.5781 231.246 96.5417 231.246 97.6875C231.246 98.8286 231.042 99.8134 230.635 100.642C230.232 101.471 229.666 102.11 228.937 102.56C228.213 103.005 227.363 103.227 226.388 103.227C225.412 103.227 224.558 102.998 223.824 102.538C223.09 102.074 222.519 101.388 222.112 100.479C221.705 99.5649 221.501 98.4356 221.501 97.0909V95.9261C221.501 93.4972 221.913 91.6553 222.737 90.4006C223.566 89.1458 224.811 88.4972 226.473 88.4545C227.06 88.4356 227.583 88.4309 228.042 88.4403C228.502 88.4498 228.902 88.4285 229.243 88.3764C229.584 88.3243 229.872 88.1989 230.109 88ZM226.388 101.722C227.046 101.722 227.612 101.556 228.085 101.224C228.563 100.893 228.93 100.427 229.186 99.8253C229.442 99.2192 229.569 98.5066 229.569 97.6875C229.569 96.892 229.439 96.215 229.179 95.6562C228.923 95.0975 228.556 94.6714 228.078 94.3778C227.6 94.0843 227.027 93.9375 226.359 93.9375C225.872 93.9375 225.434 94.0204 225.045 94.1861C224.657 94.3518 224.326 94.5956 224.051 94.9176C223.776 95.2396 223.563 95.6326 223.412 96.0966C223.265 96.5606 223.187 97.0909 223.177 97.6875C223.177 98.9091 223.464 99.8868 224.037 100.621C224.61 101.355 225.393 101.722 226.388 101.722ZM233.809 107.091V92.0909H235.429V93.8239H235.628C235.751 93.6345 235.921 93.393 236.139 93.0994C236.362 92.8011 236.679 92.536 237.091 92.304C237.507 92.0672 238.071 91.9489 238.781 91.9489C239.7 91.9489 240.509 92.1785 241.21 92.6378C241.911 93.0971 242.458 93.7481 242.851 94.5909C243.244 95.4337 243.44 96.428 243.44 97.5739C243.44 98.7292 243.244 99.7306 242.851 100.578C242.458 101.421 241.913 102.074 241.217 102.538C240.521 102.998 239.719 103.227 238.809 103.227C238.109 103.227 237.548 103.111 237.126 102.879C236.705 102.643 236.381 102.375 236.153 102.077C235.926 101.774 235.751 101.523 235.628 101.324H235.486V107.091H233.809ZM235.457 97.5455C235.457 98.3693 235.578 99.0961 235.819 99.7259C236.061 100.351 236.414 100.841 236.878 101.196C237.342 101.546 237.91 101.722 238.582 101.722C239.283 101.722 239.868 101.537 240.336 101.168C240.81 100.794 241.165 100.292 241.402 99.6619C241.643 99.0275 241.764 98.322 241.764 97.5455C241.764 96.7784 241.646 96.0871 241.409 95.4716C241.177 94.8513 240.824 94.3613 240.351 94.0014C239.882 93.6368 239.292 93.4545 238.582 93.4545C237.9 93.4545 237.327 93.6274 236.863 93.973C236.399 94.3139 236.049 94.7921 235.812 95.4077C235.576 96.0185 235.457 96.7311 235.457 97.5455ZM249.207 103.256C248.516 103.256 247.889 103.125 247.325 102.865C246.762 102.6 246.314 102.219 245.983 101.722C245.651 101.22 245.486 100.614 245.486 99.9034C245.486 99.2784 245.609 98.7718 245.855 98.3835C246.101 97.9905 246.43 97.6828 246.842 97.4602C247.254 97.2377 247.709 97.072 248.206 96.9631C248.708 96.8494 249.212 96.7595 249.719 96.6932C250.381 96.608 250.919 96.544 251.331 96.5014C251.747 96.4541 252.05 96.3759 252.24 96.267C252.434 96.1581 252.531 95.9687 252.531 95.6989V95.642C252.531 94.9413 252.339 94.3968 251.956 94.0085C251.577 93.6203 251.002 93.4261 250.23 93.4261C249.43 93.4261 248.802 93.6013 248.348 93.9517C247.893 94.3021 247.574 94.6761 247.389 95.0739L245.798 94.5057C246.082 93.8428 246.461 93.3267 246.934 92.9574C247.413 92.5833 247.934 92.3229 248.497 92.1761C249.065 92.0246 249.624 91.9489 250.173 91.9489C250.523 91.9489 250.926 91.9915 251.381 92.0767C251.84 92.1572 252.282 92.3253 252.709 92.581C253.14 92.8366 253.497 93.2225 253.781 93.7386C254.065 94.2547 254.207 94.946 254.207 95.8125V103H252.531V101.523H252.446C252.332 101.759 252.143 102.013 251.878 102.283C251.613 102.553 251.26 102.782 250.819 102.972C250.379 103.161 249.842 103.256 249.207 103.256ZM249.463 101.75C250.126 101.75 250.684 101.62 251.139 101.359C251.598 101.099 251.944 100.763 252.176 100.351C252.413 99.9389 252.531 99.5057 252.531 99.0511V97.517C252.46 97.6023 252.304 97.6804 252.062 97.7514C251.826 97.8177 251.551 97.8769 251.238 97.929C250.931 97.9763 250.63 98.0189 250.336 98.0568C250.048 98.09 249.813 98.1184 249.633 98.142C249.198 98.1989 248.791 98.2912 248.412 98.419C248.038 98.5421 247.735 98.7292 247.503 98.9801C247.275 99.2263 247.162 99.5625 247.162 99.9886C247.162 100.571 247.377 101.011 247.808 101.31C248.244 101.603 248.795 101.75 249.463 101.75ZM256.585 103L261.017 97.4602L256.642 92.0909H258.63L262.267 96.75H263.176V92.0909H264.852V96.75H265.732L269.369 92.0909H271.357L267.011 97.4602L271.414 103H269.397L265.704 98.3125H264.852V103H263.176V98.3125H262.323L258.602 103H256.585ZM277.934 103.227C276.883 103.227 275.976 102.995 275.214 102.531C274.456 102.062 273.872 101.409 273.46 100.571C273.052 99.7282 272.849 98.7481 272.849 97.6307C272.849 96.5133 273.052 95.5284 273.46 94.6761C273.872 93.8191 274.445 93.1515 275.178 92.6733C275.917 92.1903 276.779 91.9489 277.764 91.9489C278.332 91.9489 278.893 92.0436 279.447 92.233C280.001 92.4223 280.505 92.7301 280.96 93.1562C281.414 93.5777 281.776 94.1364 282.046 94.8324C282.316 95.5284 282.451 96.3854 282.451 97.4034V98.1136H274.042V96.6648H280.747C280.747 96.0492 280.624 95.5 280.377 95.017C280.136 94.5341 279.79 94.1529 279.34 93.8736C278.895 93.5942 278.37 93.4545 277.764 93.4545C277.096 93.4545 276.518 93.6203 276.031 93.9517C275.548 94.2784 275.176 94.7045 274.916 95.2301C274.655 95.7557 274.525 96.3191 274.525 96.9205V97.8864C274.525 98.7102 274.667 99.4086 274.951 99.9815C275.24 100.55 275.64 100.983 276.151 101.281C276.663 101.575 277.257 101.722 277.934 101.722C278.374 101.722 278.772 101.66 279.127 101.537C279.487 101.409 279.797 101.22 280.058 100.969C280.318 100.713 280.519 100.396 280.661 100.017L282.281 100.472C282.11 101.021 281.824 101.504 281.421 101.92C281.019 102.332 280.522 102.654 279.93 102.886C279.338 103.114 278.673 103.227 277.934 103.227ZM292.302 96.7784V98.3409H286.279V96.7784H292.302ZM286.677 92.0909V103H285.001V92.0909H286.677ZM293.58 92.0909V103H291.904V92.0909H293.58ZM298.318 100.528L303.573 92.0909H305.505V103H303.829V94.5625L298.602 103H296.642V92.0909H298.318V100.528ZM315.138 103V93.625H312.24C311.586 93.625 311.073 93.7765 310.699 94.0795C310.325 94.3826 310.138 94.7992 310.138 95.3295C310.138 95.8504 310.306 96.2599 310.642 96.5582C310.983 96.8565 311.449 97.0057 312.041 97.0057H315.564V98.5682H312.041C311.302 98.5682 310.666 98.438 310.131 98.1776C309.595 97.9171 309.184 97.5455 308.895 97.0625C308.606 96.5748 308.461 95.9972 308.461 95.3295C308.461 94.6572 308.613 94.0795 308.916 93.5966C309.219 93.1136 309.652 92.742 310.216 92.4815C310.784 92.2211 311.459 92.0909 312.24 92.0909H316.729V103H315.138ZM307.865 103L310.961 97.5739H312.78L309.683 103H307.865Z" fill="white"/>
<path d="M186.865 131.455V146H185.103V133.017H177.774V146H176.012V131.455H186.865ZM190.19 150.091V135.091H191.81V136.824H192.009C192.132 136.634 192.302 136.393 192.52 136.099C192.742 135.801 193.06 135.536 193.472 135.304C193.888 135.067 194.452 134.949 195.162 134.949C196.08 134.949 196.89 135.179 197.591 135.638C198.292 136.097 198.839 136.748 199.232 137.591C199.625 138.434 199.821 139.428 199.821 140.574C199.821 141.729 199.625 142.731 199.232 143.578C198.839 144.421 198.294 145.074 197.598 145.538C196.902 145.998 196.099 146.227 195.19 146.227C194.49 146.227 193.929 146.111 193.507 145.879C193.086 145.643 192.761 145.375 192.534 145.077C192.307 144.774 192.132 144.523 192.009 144.324H191.866V150.091H190.19ZM191.838 140.545C191.838 141.369 191.959 142.096 192.2 142.726C192.442 143.351 192.795 143.841 193.259 144.196C193.723 144.546 194.291 144.722 194.963 144.722C195.664 144.722 196.249 144.537 196.717 144.168C197.191 143.794 197.546 143.292 197.783 142.662C198.024 142.027 198.145 141.322 198.145 140.545C198.145 139.778 198.027 139.087 197.79 138.472C197.558 137.851 197.205 137.361 196.732 137.001C196.263 136.637 195.673 136.455 194.963 136.455C194.281 136.455 193.708 136.627 193.244 136.973C192.78 137.314 192.43 137.792 192.193 138.408C191.956 139.018 191.838 139.731 191.838 140.545ZM206.952 146.227C205.901 146.227 204.994 145.995 204.232 145.531C203.474 145.062 202.889 144.409 202.477 143.571C202.07 142.728 201.866 141.748 201.866 140.631C201.866 139.513 202.07 138.528 202.477 137.676C202.889 136.819 203.462 136.152 204.196 135.673C204.935 135.19 205.796 134.949 206.781 134.949C207.349 134.949 207.911 135.044 208.464 135.233C209.018 135.422 209.523 135.73 209.977 136.156C210.432 136.578 210.794 137.136 211.064 137.832C211.334 138.528 211.469 139.385 211.469 140.403V141.114H203.06V139.665H209.764C209.764 139.049 209.641 138.5 209.395 138.017C209.153 137.534 208.808 137.153 208.358 136.874C207.913 136.594 207.387 136.455 206.781 136.455C206.114 136.455 205.536 136.62 205.048 136.952C204.565 137.278 204.194 137.705 203.933 138.23C203.673 138.756 203.543 139.319 203.543 139.92V140.886C203.543 141.71 203.685 142.409 203.969 142.982C204.258 143.55 204.658 143.983 205.169 144.281C205.68 144.575 206.275 144.722 206.952 144.722C207.392 144.722 207.79 144.66 208.145 144.537C208.505 144.409 208.815 144.22 209.075 143.969C209.336 143.713 209.537 143.396 209.679 143.017L211.298 143.472C211.128 144.021 210.841 144.504 210.439 144.92C210.036 145.332 209.539 145.654 208.947 145.886C208.356 146.114 207.69 146.227 206.952 146.227ZM212.854 149.125V144.438H213.763C213.985 144.205 214.177 143.955 214.338 143.685C214.499 143.415 214.639 143.095 214.757 142.726C214.88 142.352 214.984 141.897 215.07 141.362C215.155 140.822 215.231 140.171 215.297 139.409L215.666 135.091H222.598V144.438H224.274V149.125H222.598V146H214.53V149.125H212.854ZM215.666 144.438H220.922V136.653H217.229L216.945 139.409C216.826 140.55 216.679 141.547 216.504 142.399C216.329 143.251 216.05 143.931 215.666 144.438ZM230.931 146.227C229.946 146.227 229.082 145.993 228.338 145.524C227.6 145.055 227.022 144.4 226.605 143.557C226.194 142.714 225.988 141.729 225.988 140.602C225.988 139.466 226.194 138.474 226.605 137.626C227.022 136.779 227.6 136.121 228.338 135.652C229.082 135.183 229.946 134.949 230.931 134.949C231.916 134.949 232.777 135.183 233.516 135.652C234.259 136.121 234.837 136.779 235.249 137.626C235.666 138.474 235.874 139.466 235.874 140.602C235.874 141.729 235.666 142.714 235.249 143.557C234.837 144.4 234.259 145.055 233.516 145.524C232.777 145.993 231.916 146.227 230.931 146.227ZM230.931 144.722C231.679 144.722 232.294 144.53 232.777 144.146C233.26 143.763 233.618 143.259 233.85 142.634C234.082 142.009 234.198 141.331 234.198 140.602C234.198 139.873 234.082 139.194 233.85 138.564C233.618 137.934 233.26 137.425 232.777 137.037C232.294 136.649 231.679 136.455 230.931 136.455C230.183 136.455 229.567 136.649 229.084 137.037C228.601 137.425 228.244 137.934 228.012 138.564C227.78 139.194 227.664 139.873 227.664 140.602C227.664 141.331 227.78 142.009 228.012 142.634C228.244 143.259 228.601 143.763 229.084 144.146C229.567 144.53 230.183 144.722 230.931 144.722ZM246.529 131L247.381 132.023C247.05 132.345 246.666 132.57 246.231 132.697C245.795 132.825 245.303 132.903 244.754 132.932C244.204 132.96 243.594 132.989 242.921 133.017C242.164 133.045 241.536 133.23 241.039 133.571C240.542 133.912 240.158 134.404 239.888 135.048C239.619 135.692 239.446 136.483 239.37 137.42H239.512C239.881 136.739 240.393 136.237 241.046 135.915C241.7 135.593 242.4 135.432 243.148 135.432C244.001 135.432 244.768 135.631 245.45 136.028C246.131 136.426 246.671 137.016 247.069 137.797C247.467 138.578 247.665 139.542 247.665 140.688C247.665 141.829 247.462 142.813 247.055 143.642C246.652 144.471 246.086 145.11 245.357 145.56C244.633 146.005 243.783 146.227 242.808 146.227C241.832 146.227 240.978 145.998 240.244 145.538C239.51 145.074 238.939 144.388 238.532 143.479C238.125 142.565 237.921 141.436 237.921 140.091V138.926C237.921 136.497 238.333 134.655 239.157 133.401C239.986 132.146 241.231 131.497 242.893 131.455C243.48 131.436 244.003 131.431 244.462 131.44C244.922 131.45 245.322 131.429 245.663 131.376C246.004 131.324 246.292 131.199 246.529 131ZM242.808 144.722C243.466 144.722 244.031 144.556 244.505 144.224C244.983 143.893 245.35 143.427 245.606 142.825C245.862 142.219 245.989 141.507 245.989 140.688C245.989 139.892 245.859 139.215 245.599 138.656C245.343 138.098 244.976 137.671 244.498 137.378C244.02 137.084 243.447 136.938 242.779 136.938C242.291 136.938 241.853 137.02 241.465 137.186C241.077 137.352 240.746 137.596 240.471 137.918C240.196 138.24 239.983 138.633 239.832 139.097C239.685 139.561 239.607 140.091 239.597 140.688C239.597 141.909 239.884 142.887 240.457 143.621C241.03 144.355 241.813 144.722 242.808 144.722ZM250.229 150.091V135.091H251.849V136.824H252.048C252.171 136.634 252.341 136.393 252.559 136.099C252.781 135.801 253.099 135.536 253.511 135.304C253.927 135.067 254.491 134.949 255.201 134.949C256.12 134.949 256.929 135.179 257.63 135.638C258.331 136.097 258.878 136.748 259.271 137.591C259.664 138.434 259.86 139.428 259.86 140.574C259.86 141.729 259.664 142.731 259.271 143.578C258.878 144.421 258.333 145.074 257.637 145.538C256.941 145.998 256.138 146.227 255.229 146.227C254.529 146.227 253.968 146.111 253.546 145.879C253.125 145.643 252.8 145.375 252.573 145.077C252.346 144.774 252.171 144.523 252.048 144.324H251.906V150.091H250.229ZM251.877 140.545C251.877 141.369 251.998 142.096 252.239 142.726C252.481 143.351 252.834 143.841 253.298 144.196C253.762 144.546 254.33 144.722 255.002 144.722C255.703 144.722 256.288 144.537 256.756 144.168C257.23 143.794 257.585 143.292 257.822 142.662C258.063 142.027 258.184 141.322 258.184 140.545C258.184 139.778 258.066 139.087 257.829 138.472C257.597 137.851 257.244 137.361 256.771 137.001C256.302 136.637 255.712 136.455 255.002 136.455C254.32 136.455 253.747 136.627 253.283 136.973C252.819 137.314 252.469 137.792 252.232 138.408C251.996 139.018 251.877 139.731 251.877 140.545ZM265.627 146.256C264.936 146.256 264.308 146.125 263.745 145.865C263.182 145.6 262.734 145.219 262.403 144.722C262.071 144.22 261.906 143.614 261.906 142.903C261.906 142.278 262.029 141.772 262.275 141.384C262.521 140.991 262.85 140.683 263.262 140.46C263.674 140.238 264.129 140.072 264.626 139.963C265.128 139.849 265.632 139.759 266.138 139.693C266.801 139.608 267.339 139.544 267.751 139.501C268.167 139.454 268.47 139.376 268.66 139.267C268.854 139.158 268.951 138.969 268.951 138.699V138.642C268.951 137.941 268.759 137.397 268.376 137.009C267.997 136.62 267.422 136.426 266.65 136.426C265.85 136.426 265.222 136.601 264.768 136.952C264.313 137.302 263.994 137.676 263.809 138.074L262.218 137.506C262.502 136.843 262.881 136.327 263.354 135.957C263.833 135.583 264.353 135.323 264.917 135.176C265.485 135.025 266.044 134.949 266.593 134.949C266.943 134.949 267.346 134.991 267.8 135.077C268.26 135.157 268.702 135.325 269.129 135.581C269.559 135.837 269.917 136.223 270.201 136.739C270.485 137.255 270.627 137.946 270.627 138.812V146H268.951V144.523H268.866C268.752 144.759 268.563 145.013 268.298 145.283C268.032 145.553 267.68 145.782 267.239 145.972C266.799 146.161 266.262 146.256 265.627 146.256ZM265.883 144.75C266.546 144.75 267.104 144.62 267.559 144.359C268.018 144.099 268.364 143.763 268.596 143.351C268.833 142.939 268.951 142.506 268.951 142.051V140.517C268.88 140.602 268.724 140.68 268.482 140.751C268.246 140.818 267.971 140.877 267.658 140.929C267.351 140.976 267.05 141.019 266.756 141.057C266.468 141.09 266.233 141.118 266.053 141.142C265.618 141.199 265.21 141.291 264.832 141.419C264.458 141.542 264.155 141.729 263.923 141.98C263.695 142.226 263.582 142.562 263.582 142.989C263.582 143.571 263.797 144.011 264.228 144.31C264.664 144.603 265.215 144.75 265.883 144.75ZM281.783 131L282.635 132.023C282.304 132.345 281.92 132.57 281.485 132.697C281.049 132.825 280.557 132.903 280.007 132.932C279.458 132.96 278.847 132.989 278.175 133.017C277.417 133.045 276.79 133.23 276.293 133.571C275.796 133.912 275.412 134.404 275.142 135.048C274.873 135.692 274.7 136.483 274.624 137.42H274.766C275.135 136.739 275.647 136.237 276.3 135.915C276.953 135.593 277.654 135.432 278.402 135.432C279.255 135.432 280.022 135.631 280.703 136.028C281.385 136.426 281.925 137.016 282.323 137.797C282.721 138.578 282.919 139.542 282.919 140.688C282.919 141.829 282.716 142.813 282.309 143.642C281.906 144.471 281.34 145.11 280.611 145.56C279.887 146.005 279.037 146.227 278.061 146.227C277.086 146.227 276.231 145.998 275.498 145.538C274.764 145.074 274.193 144.388 273.786 143.479C273.379 142.565 273.175 141.436 273.175 140.091V138.926C273.175 136.497 273.587 134.655 274.411 133.401C275.239 132.146 276.485 131.497 278.147 131.455C278.734 131.436 279.257 131.431 279.716 131.44C280.176 131.45 280.576 131.429 280.917 131.376C281.257 131.324 281.546 131.199 281.783 131ZM278.061 144.722C278.72 144.722 279.285 144.556 279.759 144.224C280.237 143.893 280.604 143.427 280.86 142.825C281.115 142.219 281.243 141.507 281.243 140.688C281.243 139.892 281.113 139.215 280.853 138.656C280.597 138.098 280.23 137.671 279.752 137.378C279.274 137.084 278.701 136.938 278.033 136.938C277.545 136.938 277.107 137.02 276.719 137.186C276.331 137.352 275.999 137.596 275.725 137.918C275.45 138.24 275.237 138.633 275.086 139.097C274.939 139.561 274.861 140.091 274.851 140.688C274.851 141.909 275.138 142.887 275.711 143.621C276.283 144.355 277.067 144.722 278.061 144.722ZM289.915 146.227C288.93 146.227 288.066 145.993 287.323 145.524C286.584 145.055 286.007 144.4 285.59 143.557C285.178 142.714 284.972 141.729 284.972 140.602C284.972 139.466 285.178 138.474 285.59 137.626C286.007 136.779 286.584 136.121 287.323 135.652C288.066 135.183 288.93 134.949 289.915 134.949C290.9 134.949 291.762 135.183 292.5 135.652C293.244 136.121 293.821 136.779 294.233 137.626C294.65 138.474 294.858 139.466 294.858 140.602C294.858 141.729 294.65 142.714 294.233 143.557C293.821 144.4 293.244 145.055 292.5 145.524C291.762 145.993 290.9 146.227 289.915 146.227ZM289.915 144.722C290.663 144.722 291.279 144.53 291.762 144.146C292.245 143.763 292.602 143.259 292.834 142.634C293.066 142.009 293.182 141.331 293.182 140.602C293.182 139.873 293.066 139.194 292.834 138.564C292.602 137.934 292.245 137.425 291.762 137.037C291.279 136.649 290.663 136.455 289.915 136.455C289.167 136.455 288.551 136.649 288.069 137.037C287.586 137.425 287.228 137.934 286.996 138.564C286.764 139.194 286.648 139.873 286.648 140.602C286.648 141.331 286.764 142.009 286.996 142.634C287.228 143.259 287.586 143.763 288.069 144.146C288.551 144.53 289.167 144.722 289.915 144.722ZM295.991 136.653V135.091H304.855V136.653H301.275V146H299.599V136.653H295.991ZM307.3 146V135.091H308.976V139.835H310.084L314.004 135.091H316.163L311.76 140.347L316.22 146H314.061L310.482 141.398H308.976V146H307.3ZM321.252 146.256C320.561 146.256 319.933 146.125 319.37 145.865C318.807 145.6 318.359 145.219 318.028 144.722C317.696 144.22 317.531 143.614 317.531 142.903C317.531 142.278 317.654 141.772 317.9 141.384C318.146 140.991 318.475 140.683 318.887 140.46C319.299 140.238 319.754 140.072 320.251 139.963C320.753 139.849 321.257 139.759 321.763 139.693C322.426 139.608 322.964 139.544 323.376 139.501C323.792 139.454 324.095 139.376 324.285 139.267C324.479 139.158 324.576 138.969 324.576 138.699V138.642C324.576 137.941 324.384 137.397 324.001 137.009C323.622 136.62 323.047 136.426 322.275 136.426C321.475 136.426 320.847 136.601 320.393 136.952C319.938 137.302 319.619 137.676 319.434 138.074L317.843 137.506C318.127 136.843 318.506 136.327 318.979 135.957C319.458 135.583 319.978 135.323 320.542 135.176C321.11 135.025 321.669 134.949 322.218 134.949C322.568 134.949 322.971 134.991 323.425 135.077C323.885 135.157 324.327 135.325 324.754 135.581C325.184 135.837 325.542 136.223 325.826 136.739C326.11 137.255 326.252 137.946 326.252 138.812V146H324.576V144.523H324.491C324.377 144.759 324.188 145.013 323.923 145.283C323.657 145.553 323.305 145.782 322.864 145.972C322.424 146.161 321.887 146.256 321.252 146.256ZM321.508 144.75C322.171 144.75 322.729 144.62 323.184 144.359C323.643 144.099 323.989 143.763 324.221 143.351C324.458 142.939 324.576 142.506 324.576 142.051V140.517C324.505 140.602 324.349 140.68 324.107 140.751C323.871 140.818 323.596 140.877 323.283 140.929C322.976 140.976 322.675 141.019 322.381 141.057C322.093 141.09 321.858 141.118 321.678 141.142C321.243 141.199 320.835 141.291 320.457 141.419C320.083 141.542 319.78 141.729 319.548 141.98C319.32 142.226 319.207 142.562 319.207 142.989C319.207 143.571 319.422 144.011 319.853 144.31C320.289 144.603 320.84 144.75 321.508 144.75Z" fill="white"/>
<path d="M180.152 189V174.455H185.067C186.208 174.455 187.141 174.661 187.865 175.072C188.594 175.48 189.134 176.031 189.484 176.727C189.835 177.423 190.01 178.2 190.01 179.057C190.01 179.914 189.835 180.693 189.484 181.393C189.139 182.094 188.604 182.653 187.879 183.07C187.155 183.482 186.227 183.688 185.095 183.688H181.572V182.125H185.038C185.82 182.125 186.447 181.99 186.92 181.72C187.394 181.45 187.737 181.086 187.95 180.626C188.168 180.162 188.277 179.639 188.277 179.057C188.277 178.474 188.168 177.954 187.95 177.494C187.737 177.035 187.392 176.675 186.913 176.415C186.435 176.15 185.801 176.017 185.01 176.017H181.913V189H180.152ZM195.83 189.256C195.139 189.256 194.512 189.125 193.948 188.865C193.385 188.6 192.937 188.219 192.606 187.722C192.274 187.22 192.109 186.614 192.109 185.903C192.109 185.278 192.232 184.772 192.478 184.384C192.724 183.991 193.053 183.683 193.465 183.46C193.877 183.238 194.332 183.072 194.829 182.963C195.331 182.849 195.835 182.759 196.342 182.693C197.004 182.608 197.542 182.544 197.954 182.501C198.371 182.454 198.674 182.376 198.863 182.267C199.057 182.158 199.154 181.969 199.154 181.699V181.642C199.154 180.941 198.962 180.397 198.579 180.009C198.2 179.62 197.625 179.426 196.853 179.426C196.053 179.426 195.425 179.601 194.971 179.952C194.516 180.302 194.197 180.676 194.012 181.074L192.421 180.506C192.705 179.843 193.084 179.327 193.558 178.957C194.036 178.583 194.557 178.323 195.12 178.176C195.688 178.025 196.247 177.949 196.796 177.949C197.147 177.949 197.549 177.991 198.004 178.077C198.463 178.157 198.906 178.325 199.332 178.581C199.763 178.837 200.12 179.223 200.404 179.739C200.688 180.255 200.83 180.946 200.83 181.812V189H199.154V187.523H199.069C198.955 187.759 198.766 188.013 198.501 188.283C198.236 188.553 197.883 188.782 197.442 188.972C197.002 189.161 196.465 189.256 195.83 189.256ZM196.086 187.75C196.749 187.75 197.308 187.62 197.762 187.359C198.221 187.099 198.567 186.763 198.799 186.351C199.036 185.939 199.154 185.506 199.154 185.051V183.517C199.083 183.602 198.927 183.68 198.685 183.751C198.449 183.818 198.174 183.877 197.862 183.929C197.554 183.976 197.253 184.019 196.96 184.057C196.671 184.09 196.436 184.118 196.256 184.142C195.821 184.199 195.414 184.291 195.035 184.419C194.661 184.542 194.358 184.729 194.126 184.98C193.898 185.226 193.785 185.562 193.785 185.989C193.785 186.571 194 187.011 194.431 187.31C194.867 187.603 195.418 187.75 196.086 187.75ZM208.321 189.227C207.299 189.227 206.418 188.986 205.679 188.503C204.941 188.02 204.373 187.355 203.975 186.507C203.577 185.66 203.378 184.691 203.378 183.602C203.378 182.494 203.582 181.517 203.989 180.669C204.401 179.817 204.974 179.152 205.708 178.673C206.446 178.19 207.308 177.949 208.293 177.949C209.06 177.949 209.751 178.091 210.367 178.375C210.982 178.659 211.487 179.057 211.88 179.568C212.273 180.08 212.516 180.676 212.611 181.358H210.935C210.807 180.861 210.523 180.42 210.083 180.037C209.647 179.649 209.06 179.455 208.321 179.455C207.668 179.455 207.095 179.625 206.603 179.966C206.115 180.302 205.734 180.778 205.459 181.393C205.189 182.004 205.054 182.722 205.054 183.545C205.054 184.388 205.187 185.122 205.452 185.747C205.722 186.372 206.101 186.857 206.588 187.203C207.081 187.549 207.658 187.722 208.321 187.722C208.757 187.722 209.152 187.646 209.507 187.494C209.863 187.343 210.163 187.125 210.409 186.841C210.656 186.557 210.831 186.216 210.935 185.818H212.611C212.516 186.462 212.282 187.042 211.908 187.558C211.539 188.07 211.049 188.477 210.438 188.78C209.832 189.078 209.126 189.227 208.321 189.227ZM215.061 189V178.091H223.641V189H221.965V179.653H216.738V189H215.061ZM231.134 189.227C230.149 189.227 229.285 188.993 228.542 188.524C227.803 188.055 227.225 187.4 226.809 186.557C226.397 185.714 226.191 184.729 226.191 183.602C226.191 182.466 226.397 181.474 226.809 180.626C227.225 179.779 227.803 179.121 228.542 178.652C229.285 178.183 230.149 177.949 231.134 177.949C232.119 177.949 232.98 178.183 233.719 178.652C234.462 179.121 235.04 179.779 235.452 180.626C235.869 181.474 236.077 182.466 236.077 183.602C236.077 184.729 235.869 185.714 235.452 186.557C235.04 187.4 234.462 188.055 233.719 188.524C232.98 188.993 232.119 189.227 231.134 189.227ZM231.134 187.722C231.882 187.722 232.498 187.53 232.98 187.146C233.463 186.763 233.821 186.259 234.053 185.634C234.285 185.009 234.401 184.331 234.401 183.602C234.401 182.873 234.285 182.194 234.053 181.564C233.821 180.934 233.463 180.425 232.98 180.037C232.498 179.649 231.882 179.455 231.134 179.455C230.386 179.455 229.77 179.649 229.287 180.037C228.804 180.425 228.447 180.934 228.215 181.564C227.983 182.194 227.867 182.873 227.867 183.602C227.867 184.331 227.983 185.009 228.215 185.634C228.447 186.259 228.804 186.763 229.287 187.146C229.77 187.53 230.386 187.722 231.134 187.722ZM237.954 186.216H239.744C239.781 186.708 240.004 187.082 240.411 187.338C240.823 187.594 241.358 187.722 242.016 187.722C242.689 187.722 243.264 187.584 243.742 187.31C244.22 187.03 244.46 186.58 244.46 185.96C244.46 185.596 244.37 185.278 244.19 185.009C244.01 184.734 243.756 184.521 243.43 184.369C243.103 184.218 242.717 184.142 242.272 184.142H240.397V182.636H242.272C242.94 182.636 243.432 182.485 243.749 182.182C244.071 181.879 244.232 181.5 244.232 181.045C244.232 180.558 244.059 180.167 243.714 179.874C243.368 179.575 242.878 179.426 242.244 179.426C241.604 179.426 241.072 179.571 240.646 179.859C240.219 180.143 239.995 180.51 239.971 180.96H238.21C238.228 180.373 238.408 179.855 238.749 179.405C239.09 178.95 239.554 178.595 240.141 178.339C240.728 178.079 241.401 177.949 242.158 177.949C242.925 177.949 243.591 178.084 244.154 178.354C244.722 178.619 245.16 178.981 245.468 179.44C245.781 179.895 245.937 180.411 245.937 180.989C245.937 181.604 245.764 182.101 245.418 182.48C245.073 182.859 244.639 183.129 244.119 183.29V183.403C244.531 183.432 244.888 183.564 245.191 183.801C245.499 184.033 245.738 184.339 245.908 184.717C246.079 185.091 246.164 185.506 246.164 185.96C246.164 186.623 245.987 187.201 245.631 187.693C245.276 188.181 244.789 188.56 244.168 188.83C243.548 189.095 242.84 189.227 242.045 189.227C241.273 189.227 240.582 189.102 239.971 188.851C239.36 188.595 238.875 188.242 238.515 187.793C238.16 187.338 237.973 186.812 237.954 186.216ZM255.82 182.778V184.341H249.797V182.778H255.82ZM250.195 178.091V189H248.518V178.091H250.195ZM257.098 178.091V189H255.422V178.091H257.098ZM263.369 189.256C262.678 189.256 262.051 189.125 261.487 188.865C260.924 188.6 260.476 188.219 260.145 187.722C259.813 187.22 259.648 186.614 259.648 185.903C259.648 185.278 259.771 184.772 260.017 184.384C260.263 183.991 260.592 183.683 261.004 183.46C261.416 183.238 261.871 183.072 262.368 182.963C262.87 182.849 263.374 182.759 263.881 182.693C264.544 182.608 265.081 182.544 265.493 182.501C265.91 182.454 266.213 182.376 266.402 182.267C266.596 182.158 266.693 181.969 266.693 181.699V181.642C266.693 180.941 266.501 180.397 266.118 180.009C265.739 179.62 265.164 179.426 264.392 179.426C263.592 179.426 262.964 179.601 262.51 179.952C262.055 180.302 261.736 180.676 261.551 181.074L259.96 180.506C260.244 179.843 260.623 179.327 261.097 178.957C261.575 178.583 262.096 178.323 262.659 178.176C263.227 178.025 263.786 177.949 264.335 177.949C264.686 177.949 265.088 177.991 265.543 178.077C266.002 178.157 266.445 178.325 266.871 178.581C267.302 178.837 267.659 179.223 267.943 179.739C268.227 180.255 268.369 180.946 268.369 181.812V189H266.693V187.523H266.608C266.494 187.759 266.305 188.013 266.04 188.283C265.775 188.553 265.422 188.782 264.982 188.972C264.541 189.161 264.004 189.256 263.369 189.256ZM263.625 187.75C264.288 187.75 264.847 187.62 265.301 187.359C265.76 187.099 266.106 186.763 266.338 186.351C266.575 185.939 266.693 185.506 266.693 185.051V183.517C266.622 183.602 266.466 183.68 266.224 183.751C265.988 183.818 265.713 183.877 265.401 183.929C265.093 183.976 264.792 184.019 264.499 184.057C264.21 184.09 263.975 184.118 263.795 184.142C263.36 184.199 262.953 184.291 262.574 184.419C262.2 184.542 261.897 184.729 261.665 184.98C261.438 185.226 261.324 185.562 261.324 185.989C261.324 186.571 261.539 187.011 261.97 187.31C262.406 187.603 262.957 187.75 263.625 187.75ZM271.429 189V178.091H275.889C277.063 178.091 277.996 178.356 278.687 178.886C279.378 179.417 279.724 180.117 279.724 180.989C279.724 181.652 279.528 182.165 279.135 182.53C278.742 182.89 278.237 183.134 277.622 183.261C278.024 183.318 278.415 183.46 278.794 183.688C279.177 183.915 279.494 184.227 279.745 184.625C279.996 185.018 280.122 185.501 280.122 186.074C280.122 186.633 279.98 187.132 279.696 187.572C279.412 188.013 279.004 188.361 278.474 188.616C277.944 188.872 277.309 189 276.571 189H271.429ZM273.02 187.466H276.571C277.148 187.466 277.6 187.329 277.927 187.054C278.254 186.779 278.417 186.405 278.417 185.932C278.417 185.368 278.254 184.926 277.927 184.604C277.6 184.277 277.148 184.114 276.571 184.114H273.02V187.466ZM273.02 182.665H275.889C276.339 182.665 276.725 182.603 277.047 182.48C277.368 182.352 277.615 182.172 277.785 181.94C277.96 181.704 278.048 181.424 278.048 181.102C278.048 180.643 277.856 180.283 277.473 180.023C277.089 179.758 276.561 179.625 275.889 179.625H273.02V182.665ZM285.869 189.256C285.178 189.256 284.551 189.125 283.987 188.865C283.424 188.6 282.976 188.219 282.645 187.722C282.313 187.22 282.148 186.614 282.148 185.903C282.148 185.278 282.271 184.772 282.517 184.384C282.763 183.991 283.092 183.683 283.504 183.46C283.916 183.238 284.371 183.072 284.868 182.963C285.37 182.849 285.874 182.759 286.381 182.693C287.044 182.608 287.581 182.544 287.993 182.501C288.41 182.454 288.713 182.376 288.902 182.267C289.096 182.158 289.193 181.969 289.193 181.699V181.642C289.193 180.941 289.001 180.397 288.618 180.009C288.239 179.62 287.664 179.426 286.892 179.426C286.092 179.426 285.464 179.601 285.01 179.952C284.555 180.302 284.236 180.676 284.051 181.074L282.46 180.506C282.744 179.843 283.123 179.327 283.597 178.957C284.075 178.583 284.596 178.323 285.159 178.176C285.727 178.025 286.286 177.949 286.835 177.949C287.186 177.949 287.588 177.991 288.043 178.077C288.502 178.157 288.945 178.325 289.371 178.581C289.802 178.837 290.159 179.223 290.443 179.739C290.727 180.255 290.869 180.946 290.869 181.812V189H289.193V187.523H289.108C288.994 187.759 288.805 188.013 288.54 188.283C288.275 188.553 287.922 188.782 287.482 188.972C287.041 189.161 286.504 189.256 285.869 189.256ZM286.125 187.75C286.788 187.75 287.347 187.62 287.801 187.359C288.26 187.099 288.606 186.763 288.838 186.351C289.075 185.939 289.193 185.506 289.193 185.051V183.517C289.122 183.602 288.966 183.68 288.724 183.751C288.488 183.818 288.213 183.877 287.901 183.929C287.593 183.976 287.292 184.019 286.999 184.057C286.71 184.09 286.475 184.118 286.295 184.142C285.86 184.199 285.453 184.291 285.074 184.419C284.7 184.542 284.397 184.729 284.165 184.98C283.938 185.226 283.824 185.562 283.824 185.989C283.824 186.571 284.039 187.011 284.47 187.31C284.906 187.603 285.457 187.75 286.125 187.75ZM301.23 182.778V184.341H295.207V182.778H301.23ZM295.605 178.091V189H293.929V178.091H295.605ZM302.508 178.091V189H300.832V178.091H302.508ZM307.245 186.528L312.501 178.091H314.433V189H312.757V180.562L307.529 189H305.569V178.091H307.245V186.528ZM322.077 189.227C321.026 189.227 320.119 188.995 319.357 188.531C318.599 188.062 318.014 187.409 317.602 186.571C317.195 185.728 316.991 184.748 316.991 183.631C316.991 182.513 317.195 181.528 317.602 180.676C318.014 179.819 318.587 179.152 319.321 178.673C320.06 178.19 320.921 177.949 321.906 177.949C322.474 177.949 323.036 178.044 323.589 178.233C324.143 178.422 324.648 178.73 325.102 179.156C325.557 179.578 325.919 180.136 326.189 180.832C326.459 181.528 326.594 182.385 326.594 183.403V184.114H318.185V182.665H324.889C324.889 182.049 324.766 181.5 324.52 181.017C324.278 180.534 323.933 180.153 323.483 179.874C323.038 179.594 322.512 179.455 321.906 179.455C321.239 179.455 320.661 179.62 320.173 179.952C319.69 180.278 319.319 180.705 319.058 181.23C318.798 181.756 318.668 182.319 318.668 182.92V183.886C318.668 184.71 318.81 185.409 319.094 185.982C319.383 186.55 319.783 186.983 320.294 187.281C320.805 187.575 321.4 187.722 322.077 187.722C322.517 187.722 322.915 187.66 323.27 187.537C323.63 187.409 323.94 187.22 324.2 186.969C324.461 186.713 324.662 186.396 324.804 186.017L326.423 186.472C326.253 187.021 325.966 187.504 325.564 187.92C325.161 188.332 324.664 188.654 324.072 188.886C323.481 189.114 322.815 189.227 322.077 189.227Z" fill="white"/>
<path d="M185.943 232V217.455H191.028C192.041 217.455 192.877 217.63 193.535 217.98C194.193 218.326 194.684 218.792 195.006 219.379C195.327 219.962 195.488 220.608 195.488 221.318C195.488 221.943 195.377 222.459 195.155 222.866C194.937 223.274 194.648 223.596 194.288 223.832C193.933 224.069 193.547 224.244 193.131 224.358V224.5C193.576 224.528 194.023 224.685 194.473 224.969C194.923 225.253 195.299 225.66 195.602 226.19C195.905 226.721 196.057 227.369 196.057 228.136C196.057 228.866 195.891 229.521 195.559 230.104C195.228 230.686 194.705 231.148 193.99 231.489C193.275 231.83 192.345 232 191.199 232H185.943ZM187.704 230.438H191.199C192.349 230.438 193.166 230.215 193.649 229.77C194.137 229.32 194.381 228.776 194.381 228.136C194.381 227.644 194.255 227.189 194.004 226.773C193.753 226.351 193.396 226.015 192.932 225.764C192.468 225.509 191.918 225.381 191.284 225.381H187.704V230.438ZM187.704 223.847H190.971C191.502 223.847 191.98 223.742 192.406 223.534C192.837 223.326 193.178 223.032 193.429 222.653C193.684 222.275 193.812 221.83 193.812 221.318C193.812 220.679 193.59 220.137 193.145 219.692C192.7 219.242 191.994 219.017 191.028 219.017H187.704V223.847ZM200.4 229.528L205.655 221.091H207.587V232H205.911V223.562L200.684 232H198.724V221.091H200.4V229.528ZM209.975 229.216H211.765C211.803 229.708 212.026 230.082 212.433 230.338C212.845 230.594 213.38 230.722 214.038 230.722C214.71 230.722 215.285 230.584 215.764 230.31C216.242 230.03 216.481 229.58 216.481 228.96C216.481 228.596 216.391 228.278 216.211 228.009C216.031 227.734 215.778 227.521 215.451 227.369C215.124 227.218 214.739 227.142 214.294 227.142H212.419V225.636H214.294C214.961 225.636 215.454 225.485 215.771 225.182C216.093 224.879 216.254 224.5 216.254 224.045C216.254 223.558 216.081 223.167 215.735 222.874C215.39 222.575 214.9 222.426 214.265 222.426C213.626 222.426 213.093 222.571 212.667 222.859C212.241 223.143 212.016 223.51 211.992 223.96H210.231C210.25 223.373 210.43 222.855 210.771 222.405C211.112 221.95 211.576 221.595 212.163 221.339C212.75 221.079 213.422 220.949 214.18 220.949C214.947 220.949 215.612 221.084 216.176 221.354C216.744 221.619 217.182 221.981 217.49 222.44C217.802 222.895 217.958 223.411 217.958 223.989C217.958 224.604 217.785 225.101 217.44 225.48C217.094 225.859 216.661 226.129 216.14 226.29V226.403C216.552 226.432 216.91 226.564 217.213 226.801C217.52 227.033 217.759 227.339 217.93 227.717C218.1 228.091 218.186 228.506 218.186 228.96C218.186 229.623 218.008 230.201 217.653 230.693C217.298 231.181 216.81 231.56 216.19 231.83C215.57 232.095 214.862 232.227 214.066 232.227C213.294 232.227 212.603 232.102 211.992 231.851C211.382 231.595 210.896 231.242 210.536 230.793C210.181 230.338 209.994 229.812 209.975 229.216ZM221.619 236.091C221.335 236.091 221.082 236.067 220.86 236.02C220.637 235.977 220.483 235.935 220.398 235.892L220.824 234.415C221.231 234.519 221.591 234.557 221.904 234.528C222.216 234.5 222.493 234.36 222.735 234.109C222.981 233.863 223.206 233.463 223.409 232.909L223.722 232.057L219.688 221.091H221.506L224.517 229.784H224.631L227.642 221.091H229.46L224.83 233.591C224.621 234.154 224.363 234.621 224.056 234.99C223.748 235.364 223.39 235.641 222.983 235.821C222.581 236.001 222.126 236.091 221.619 236.091ZM234.551 232.256C233.86 232.256 233.232 232.125 232.669 231.865C232.105 231.6 231.658 231.219 231.327 230.722C230.995 230.22 230.829 229.614 230.829 228.903C230.829 228.278 230.952 227.772 231.199 227.384C231.445 226.991 231.774 226.683 232.186 226.46C232.598 226.238 233.052 226.072 233.55 225.963C234.051 225.849 234.556 225.759 235.062 225.693C235.725 225.608 236.263 225.544 236.675 225.501C237.091 225.454 237.394 225.376 237.584 225.267C237.778 225.158 237.875 224.969 237.875 224.699V224.642C237.875 223.941 237.683 223.397 237.3 223.009C236.921 222.62 236.345 222.426 235.574 222.426C234.773 222.426 234.146 222.601 233.692 222.952C233.237 223.302 232.917 223.676 232.733 224.074L231.142 223.506C231.426 222.843 231.805 222.327 232.278 221.957C232.756 221.583 233.277 221.323 233.841 221.176C234.409 221.025 234.968 220.949 235.517 220.949C235.867 220.949 236.27 220.991 236.724 221.077C237.184 221.157 237.626 221.325 238.052 221.581C238.483 221.837 238.841 222.223 239.125 222.739C239.409 223.255 239.551 223.946 239.551 224.812V232H237.875V230.523H237.79C237.676 230.759 237.487 231.013 237.221 231.283C236.956 231.553 236.604 231.782 236.163 231.972C235.723 232.161 235.185 232.256 234.551 232.256ZM234.807 230.75C235.47 230.75 236.028 230.62 236.483 230.359C236.942 230.099 237.288 229.763 237.52 229.351C237.756 228.939 237.875 228.506 237.875 228.051V226.517C237.804 226.602 237.648 226.68 237.406 226.751C237.169 226.818 236.895 226.877 236.582 226.929C236.274 226.976 235.974 227.019 235.68 227.057C235.391 227.09 235.157 227.118 234.977 227.142C234.541 227.199 234.134 227.291 233.756 227.419C233.381 227.542 233.078 227.729 232.846 227.98C232.619 228.226 232.506 228.562 232.506 228.989C232.506 229.571 232.721 230.011 233.152 230.31C233.587 230.603 234.139 230.75 234.807 230.75ZM241.644 232V230.438H242.042C242.369 230.438 242.641 230.374 242.859 230.246C243.077 230.113 243.252 229.884 243.384 229.557C243.522 229.225 243.626 228.766 243.697 228.179C243.773 227.587 243.827 226.834 243.86 225.92L244.059 221.091H251.332V232H249.656V222.653H245.65L245.48 226.545C245.442 227.44 245.361 228.229 245.238 228.911C245.12 229.588 244.937 230.156 244.691 230.615C244.45 231.074 244.128 231.42 243.725 231.652C243.323 231.884 242.819 232 242.213 232H241.644ZM256.083 229.528L261.339 221.091H263.271V232H261.595V223.562L256.367 232H254.407V221.091H256.083V229.528ZM265.659 229.216H267.449C267.487 229.708 267.709 230.082 268.116 230.338C268.528 230.594 269.063 230.722 269.721 230.722C270.394 230.722 270.969 230.584 271.447 230.31C271.925 230.03 272.165 229.58 272.165 228.96C272.165 228.596 272.075 228.278 271.895 228.009C271.715 227.734 271.461 227.521 271.135 227.369C270.808 227.218 270.422 227.142 269.977 227.142H268.102V225.636H269.977C270.645 225.636 271.137 225.485 271.454 225.182C271.776 224.879 271.937 224.5 271.937 224.045C271.937 223.558 271.765 223.167 271.419 222.874C271.073 222.575 270.583 222.426 269.949 222.426C269.309 222.426 268.777 222.571 268.351 222.859C267.925 223.143 267.7 223.51 267.676 223.96H265.915C265.934 223.373 266.113 222.855 266.454 222.405C266.795 221.95 267.259 221.595 267.846 221.339C268.434 221.079 269.106 220.949 269.863 220.949C270.631 220.949 271.296 221.084 271.859 221.354C272.427 221.619 272.865 221.981 273.173 222.44C273.486 222.895 273.642 223.411 273.642 223.989C273.642 224.604 273.469 225.101 273.123 225.48C272.778 225.859 272.345 226.129 271.824 226.29V226.403C272.236 226.432 272.593 226.564 272.896 226.801C273.204 227.033 273.443 227.339 273.613 227.717C273.784 228.091 273.869 228.506 273.869 228.96C273.869 229.623 273.692 230.201 273.336 230.693C272.981 231.181 272.494 231.56 271.873 231.83C271.253 232.095 270.545 232.227 269.75 232.227C268.978 232.227 268.287 232.102 267.676 231.851C267.065 231.595 266.58 231.242 266.22 230.793C265.865 230.338 265.678 229.812 265.659 229.216ZM279.434 232.256C278.742 232.256 278.115 232.125 277.552 231.865C276.988 231.6 276.541 231.219 276.209 230.722C275.878 230.22 275.712 229.614 275.712 228.903C275.712 228.278 275.835 227.772 276.081 227.384C276.328 226.991 276.657 226.683 277.069 226.46C277.481 226.238 277.935 226.072 278.432 225.963C278.934 225.849 279.439 225.759 279.945 225.693C280.608 225.608 281.145 225.544 281.557 225.501C281.974 225.454 282.277 225.376 282.466 225.267C282.661 225.158 282.758 224.969 282.758 224.699V224.642C282.758 223.941 282.566 223.397 282.182 223.009C281.804 222.62 281.228 222.426 280.456 222.426C279.656 222.426 279.029 222.601 278.574 222.952C278.12 223.302 277.8 223.676 277.616 224.074L276.025 223.506C276.309 222.843 276.688 222.327 277.161 221.957C277.639 221.583 278.16 221.323 278.724 221.176C279.292 221.025 279.85 220.949 280.4 220.949C280.75 220.949 281.153 220.991 281.607 221.077C282.066 221.157 282.509 221.325 282.935 221.581C283.366 221.837 283.724 222.223 284.008 222.739C284.292 223.255 284.434 223.946 284.434 224.812V232H282.758V230.523H282.672C282.559 230.759 282.369 231.013 282.104 231.283C281.839 231.553 281.486 231.782 281.046 231.972C280.606 232.161 280.068 232.256 279.434 232.256ZM279.689 230.75C280.352 230.75 280.911 230.62 281.366 230.359C281.825 230.099 282.171 229.763 282.403 229.351C282.639 228.939 282.758 228.506 282.758 228.051V226.517C282.687 226.602 282.53 226.68 282.289 226.751C282.052 226.818 281.778 226.877 281.465 226.929C281.157 226.976 280.857 227.019 280.563 227.057C280.274 227.09 280.04 227.118 279.86 227.142C279.424 227.199 279.017 227.291 278.638 227.419C278.264 227.542 277.961 227.729 277.729 227.98C277.502 228.226 277.388 228.562 277.388 228.989C277.388 229.571 277.604 230.011 278.035 230.31C278.47 230.603 279.022 230.75 279.689 230.75ZM296.073 221.091V230.438H297.607V235.523H295.931V232H287.493V221.091H289.169V230.438H294.396V221.091H296.073ZM301.865 229.528L307.12 221.091H309.052V232H307.376V223.562L302.149 232H300.188V221.091H301.865V229.528ZM318.684 232V222.625H315.787C315.133 222.625 314.62 222.777 314.246 223.08C313.872 223.383 313.684 223.799 313.684 224.33C313.684 224.85 313.853 225.26 314.189 225.558C314.53 225.857 314.996 226.006 315.588 226.006H319.111V227.568H315.588C314.849 227.568 314.212 227.438 313.677 227.178C313.142 226.917 312.73 226.545 312.442 226.062C312.153 225.575 312.008 224.997 312.008 224.33C312.008 223.657 312.16 223.08 312.463 222.597C312.766 222.114 313.199 221.742 313.763 221.482C314.331 221.221 315.006 221.091 315.787 221.091H320.275V232H318.684ZM311.412 232L314.508 226.574H316.327L313.23 232H311.412Z" fill="white"/>
<path d="M375.186 94.5655C374.394 94.3233 373.555 94.7692 373.313 95.5614C373.071 96.3537 373.517 97.1922 374.309 97.4344L375.186 94.5655ZM380.893 97.879L380.455 99.3134L380.893 97.879ZM363.939 137.939C363.354 138.525 363.354 139.475 363.939 140.061L373.485 149.607C374.071 150.192 375.021 150.192 375.607 149.607C376.192 149.021 376.192 148.071 375.607 147.485L367.121 139L375.607 130.515C376.192 129.929 376.192 128.979 375.607 128.393C375.021 127.808 374.071 127.808 373.485 128.393L363.939 137.939ZM374.309 97.4344L380.455 99.3134L381.332 96.4445L375.186 94.5655L374.309 97.4344ZM374.748 137.5L365 137.5L365 140.5L374.748 140.5L374.748 137.5ZM380.455 99.3134C401.9 105.87 397.173 137.5 374.748 137.5L374.748 140.5C400.62 140.5 406.074 104.009 381.332 96.4445L380.455 99.3134Z" fill="white"/>
<path d="M375.186 180.566C374.394 180.323 373.555 180.769 373.313 181.561C373.071 182.354 373.517 183.192 374.309 183.434L375.186 180.566ZM380.893 183.879L380.455 185.313V185.313L380.893 183.879ZM363.939 223.939C363.354 224.525 363.354 225.475 363.939 226.061L373.485 235.607C374.071 236.192 375.021 236.192 375.607 235.607C376.192 235.021 376.192 234.071 375.607 233.485L367.121 225L375.607 216.515C376.192 215.929 376.192 214.979 375.607 214.393C375.021 213.808 374.071 213.808 373.485 214.393L363.939 223.939ZM374.309 183.434L380.455 185.313L381.332 182.445L375.186 180.566L374.309 183.434ZM374.748 223.5L365 223.5L365 226.5L374.748 226.5L374.748 223.5ZM380.455 185.313C401.9 191.87 397.173 223.5 374.748 223.5L374.748 226.5C400.62 226.5 406.074 190.009 381.332 182.445L380.455 185.313Z" fill="white"/>
<path d="M140.205 137.566C140.997 137.323 141.836 137.769 142.078 138.561C142.32 139.354 141.874 140.192 141.082 140.434L140.205 137.566ZM134.498 140.879L134.936 142.313L134.498 140.879ZM151.452 180.939C152.038 181.525 152.038 182.475 151.452 183.061L141.906 192.607C141.32 193.192 140.37 193.192 139.785 192.607C139.199 192.021 139.199 191.071 139.785 190.485L148.27 182L139.785 173.515C139.199 172.929 139.199 171.979 139.785 171.393C140.37 170.808 141.32 170.808 141.906 171.393L151.452 180.939ZM141.082 140.434L134.936 142.313L134.059 139.445L140.205 137.566L141.082 140.434ZM140.644 180.5L150.391 180.5L150.391 183.5L140.644 183.5L140.644 180.5ZM134.936 142.313C113.491 148.87 118.218 180.5 140.644 180.5L140.644 183.5C114.771 183.5 109.318 147.009 134.059 139.445L134.936 142.313Z" fill="white"/>
<path d="M65.2084 24L59.1005 15.8501H57.1651V24H54.4218V5.81818H57.1651V13.4975H58.0617L64.9332 5.81818H68.2801L61.0092 13.9592L68.5554 24H65.2084ZM74.852 24.3018C73.9879 24.3018 73.2066 24.142 72.5082 23.8224C71.8098 23.4969 71.2564 23.0264 70.8481 22.4109C70.4456 21.7953 70.2444 21.0407 70.2444 20.147C70.2444 19.3776 70.3923 18.7443 70.6883 18.2472C70.9842 17.75 71.3837 17.3564 71.8868 17.0664C72.3898 16.7764 72.9521 16.5574 73.5736 16.4094C74.195 16.2615 74.8283 16.149 75.4734 16.0721C76.2902 15.9774 76.9531 15.9004 77.462 15.8413C77.971 15.7762 78.341 15.6726 78.5718 15.5305C78.8026 15.3885 78.918 15.1577 78.918 14.8381V14.7759C78.918 14.0006 78.699 13.3999 78.2611 12.9737C77.829 12.5476 77.1839 12.3345 76.3257 12.3345C75.432 12.3345 74.7277 12.5328 74.2128 12.9293C73.7038 13.32 73.3516 13.755 73.1563 14.2344L70.6616 13.6662C70.9575 12.8376 71.3896 12.1688 71.9578 11.6598C72.5319 11.1449 73.1918 10.772 73.9375 10.5412C74.6833 10.3045 75.4675 10.1861 76.2902 10.1861C76.8347 10.1861 77.4117 10.2512 78.0214 10.3814C78.6369 10.5057 79.211 10.7365 79.7437 11.0739C80.2822 11.4112 80.7232 11.8936 81.0665 12.521C81.4097 13.1424 81.5814 13.9503 81.5814 14.9446V24H78.989V22.1357H78.8825C78.7109 22.4789 78.4534 22.8163 78.1101 23.1477C77.7669 23.4792 77.3259 23.7544 76.7873 23.9734C76.2487 24.1924 75.6036 24.3018 74.852 24.3018ZM75.429 22.1712C76.1629 22.1712 76.7903 22.0262 77.3111 21.7362C77.8379 21.4461 78.2374 21.0674 78.5096 20.5998C78.7878 20.1263 78.9269 19.6203 78.9269 19.0817V17.3239C78.8322 17.4186 78.6487 17.5073 78.3765 17.5902C78.1101 17.6671 77.8053 17.7352 77.462 17.7944C77.1188 17.8477 76.7844 17.898 76.4589 17.9453C76.1333 17.9867 75.8611 18.0223 75.6421 18.0518C75.1272 18.117 74.6566 18.2264 74.2305 18.3803C73.8103 18.5342 73.4729 18.7562 73.2184 19.0462C72.9699 19.3303 72.8456 19.709 72.8456 20.1825C72.8456 20.8395 73.0882 21.3366 73.5736 21.674C74.0589 22.0054 74.6774 22.1712 75.429 22.1712ZM85.117 24V10.3636H87.7714V16.081H89.0498L93.5509 10.3636H96.8357L91.5534 16.9954L96.8979 24H93.6042L89.4937 18.549H87.7714V24H85.117ZM105.576 29.1136V10.3636H108.168V12.5742H108.39C108.544 12.2901 108.766 11.9616 109.056 11.5888C109.346 11.2159 109.749 10.8904 110.263 10.6122C110.778 10.3281 111.459 10.1861 112.305 10.1861C113.406 10.1861 114.389 10.4643 115.253 11.0206C116.117 11.5769 116.795 12.3789 117.286 13.4265C117.783 14.4741 118.032 15.7347 118.032 17.2085C118.032 18.6822 117.786 19.9458 117.295 20.9993C116.803 22.0469 116.129 22.8548 115.271 23.4229C114.412 23.9852 113.433 24.2663 112.332 24.2663C111.503 24.2663 110.826 24.1272 110.299 23.8491C109.778 23.5709 109.37 23.2454 109.074 22.8725C108.778 22.4996 108.55 22.1682 108.39 21.8782H108.23V29.1136H105.576ZM108.177 17.1818C108.177 18.1406 108.316 18.9811 108.594 19.7031C108.873 20.4252 109.275 20.9904 109.802 21.3988C110.329 21.8013 110.974 22.0025 111.737 22.0025C112.53 22.0025 113.193 21.7924 113.726 21.3722C114.258 20.946 114.661 20.369 114.933 19.641C115.211 18.913 115.35 18.0933 115.35 17.1818C115.35 16.2822 115.214 15.4743 114.942 14.7582C114.676 14.042 114.273 13.4768 113.735 13.0625C113.202 12.6482 112.536 12.4411 111.737 12.4411C110.968 12.4411 110.317 12.6393 109.784 13.0359C109.257 13.4324 108.858 13.9858 108.586 14.696C108.313 15.4062 108.177 16.2348 108.177 17.1818ZM124.974 24.3018C124.11 24.3018 123.329 24.142 122.63 23.8224C121.932 23.4969 121.379 23.0264 120.97 22.4109C120.568 21.7953 120.366 21.0407 120.366 20.147C120.366 19.3776 120.514 18.7443 120.81 18.2472C121.106 17.75 121.506 17.3564 122.009 17.0664C122.512 16.7764 123.074 16.5574 123.696 16.4094C124.317 16.2615 124.95 16.149 125.595 16.0721C126.412 15.9774 127.075 15.9004 127.584 15.8413C128.093 15.7762 128.463 15.6726 128.694 15.5305C128.925 15.3885 129.04 15.1577 129.04 14.8381V14.7759C129.04 14.0006 128.821 13.3999 128.383 12.9737C127.951 12.5476 127.306 12.3345 126.448 12.3345C125.554 12.3345 124.85 12.5328 124.335 12.9293C123.826 13.32 123.474 13.755 123.278 14.2344L120.784 13.6662C121.08 12.8376 121.512 12.1688 122.08 11.6598C122.654 11.1449 123.314 10.772 124.06 10.5412C124.805 10.3045 125.59 10.1861 126.412 10.1861C126.957 10.1861 127.534 10.2512 128.143 10.3814C128.759 10.5057 129.333 10.7365 129.866 11.0739C130.404 11.4112 130.845 11.8936 131.189 12.521C131.532 13.1424 131.703 13.9503 131.703 14.9446V24H129.111V22.1357H129.005C128.833 22.4789 128.575 22.8163 128.232 23.1477C127.889 23.4792 127.448 23.7544 126.909 23.9734C126.371 24.1924 125.726 24.3018 124.974 24.3018ZM125.551 22.1712C126.285 22.1712 126.912 22.0262 127.433 21.7362C127.96 21.4461 128.359 21.0674 128.632 20.5998C128.91 20.1263 129.049 19.6203 129.049 19.0817V17.3239C128.954 17.4186 128.771 17.5073 128.499 17.5902C128.232 17.6671 127.927 17.7352 127.584 17.7944C127.241 17.8477 126.906 17.898 126.581 17.9453C126.255 17.9867 125.983 18.0223 125.764 18.0518C125.249 18.117 124.779 18.2264 124.353 18.3803C123.932 18.5342 123.595 18.7562 123.341 19.0462C123.092 19.3303 122.968 19.709 122.968 20.1825C122.968 20.8395 123.21 21.3366 123.696 21.674C124.181 22.0054 124.799 22.1712 125.551 22.1712ZM145.759 5.28551L146.86 6.96342C146.452 7.33629 145.987 7.60263 145.466 7.76243C144.951 7.91631 144.357 8.01397 143.682 8.0554C143.007 8.09091 142.235 8.12346 141.365 8.15305C140.382 8.18265 139.574 8.39571 138.941 8.79226C138.308 9.18288 137.82 9.7629 137.476 10.5323C137.139 11.2958 136.92 12.2546 136.819 13.4087H136.988C137.432 12.5624 138.047 11.9291 138.835 11.5089C139.628 11.0887 140.518 10.8786 141.507 10.8786C142.608 10.8786 143.587 11.1301 144.445 11.6332C145.304 12.1362 145.978 12.8731 146.47 13.8438C146.967 14.8085 147.215 15.9892 147.215 17.386C147.215 18.8005 146.955 20.0227 146.434 21.0526C145.919 22.0824 145.191 22.8784 144.25 23.4407C143.315 23.997 142.211 24.2752 140.939 24.2752C139.666 24.2752 138.556 23.9882 137.609 23.4141C136.668 22.834 135.937 21.9759 135.417 20.8395C134.902 19.7031 134.644 18.3004 134.644 16.6314V15.282C134.644 12.1629 135.201 9.81617 136.313 8.24183C137.426 6.66749 139.089 5.85961 141.303 5.81818C142.019 5.80043 142.658 5.79747 143.22 5.8093C143.782 5.81522 144.274 5.78859 144.694 5.7294C145.12 5.6643 145.475 5.51633 145.759 5.28551ZM140.947 22.0469C141.687 22.0469 142.324 21.8604 142.856 21.4876C143.395 21.1088 143.809 20.5732 144.099 19.8807C144.389 19.1882 144.534 18.3714 144.534 17.4304C144.534 16.5071 144.389 15.7229 144.099 15.0778C143.809 14.4326 143.395 13.9414 142.856 13.604C142.318 13.2608 141.673 13.0891 140.921 13.0891C140.365 13.0891 139.867 13.1868 139.429 13.3821C138.991 13.5715 138.616 13.8526 138.302 14.2255C137.994 14.5984 137.754 15.0541 137.583 15.5927C137.417 16.1254 137.328 16.7379 137.316 17.4304C137.316 18.839 137.639 19.9606 138.284 20.7951C138.935 21.6296 139.823 22.0469 140.947 22.0469ZM155.924 24.2752C154.646 24.2752 153.53 23.9822 152.577 23.3963C151.625 22.8104 150.885 21.9906 150.358 20.9371C149.831 19.8836 149.568 18.6526 149.568 17.244C149.568 15.8294 149.831 14.5924 150.358 13.533C150.885 12.4736 151.625 11.6509 152.577 11.065C153.53 10.479 154.646 10.1861 155.924 10.1861C157.203 10.1861 158.318 10.479 159.271 11.065C160.224 11.6509 160.964 12.4736 161.491 13.533C162.018 14.5924 162.281 15.8294 162.281 17.244C162.281 18.6526 162.018 19.8836 161.491 20.9371C160.964 21.9906 160.224 22.8104 159.271 23.3963C158.318 23.9822 157.203 24.2752 155.924 24.2752ZM155.933 22.0469C156.762 22.0469 157.448 21.8279 157.993 21.3899C158.537 20.9519 158.94 20.369 159.2 19.641C159.467 18.913 159.6 18.111 159.6 17.2351C159.6 16.3651 159.467 15.5661 159.2 14.8381C158.94 14.1042 158.537 13.5153 157.993 13.0714C157.448 12.6275 156.762 12.4055 155.933 12.4055C155.099 12.4055 154.406 12.6275 153.856 13.0714C153.311 13.5153 152.906 14.1042 152.64 14.8381C152.379 15.5661 152.249 16.3651 152.249 17.2351C152.249 18.111 152.379 18.913 152.64 19.641C152.906 20.369 153.311 20.9519 153.856 21.3899C154.406 21.8279 155.099 22.0469 155.933 22.0469ZM163.602 12.6541V10.3636H175.107V12.6541H170.659V24H168.067V12.6541H163.602ZM181.248 24.3018C180.384 24.3018 179.603 24.142 178.905 23.8224C178.206 23.4969 177.653 23.0264 177.245 22.4109C176.842 21.7953 176.641 21.0407 176.641 20.147C176.641 19.3776 176.789 18.7443 177.085 18.2472C177.381 17.75 177.78 17.3564 178.283 17.0664C178.786 16.7764 179.349 16.5574 179.97 16.4094C180.591 16.2615 181.225 16.149 181.87 16.0721C182.687 15.9774 183.35 15.9004 183.859 15.8413C184.368 15.7762 184.737 15.6726 184.968 15.5305C185.199 15.3885 185.314 15.1577 185.314 14.8381V14.7759C185.314 14.0006 185.096 13.3999 184.658 12.9737C184.225 12.5476 183.58 12.3345 182.722 12.3345C181.828 12.3345 181.124 12.5328 180.609 12.9293C180.1 13.32 179.748 13.755 179.553 14.2344L177.058 13.6662C177.354 12.8376 177.786 12.1688 178.354 11.6598C178.928 11.1449 179.588 10.772 180.334 10.5412C181.08 10.3045 181.864 10.1861 182.687 10.1861C183.231 10.1861 183.808 10.2512 184.418 10.3814C185.033 10.5057 185.607 10.7365 186.14 11.0739C186.679 11.4112 187.12 11.8936 187.463 12.521C187.806 13.1424 187.978 13.9503 187.978 14.9446V24H185.386V22.1357H185.279C185.107 22.4789 184.85 22.8163 184.507 23.1477C184.163 23.4792 183.722 23.7544 183.184 23.9734C182.645 24.1924 182 24.3018 181.248 24.3018ZM181.826 22.1712C182.559 22.1712 183.187 22.0262 183.708 21.7362C184.234 21.4461 184.634 21.0674 184.906 20.5998C185.184 20.1263 185.323 19.6203 185.323 19.0817V17.3239C185.229 17.4186 185.045 17.5073 184.773 17.5902C184.507 17.6671 184.202 17.7352 183.859 17.7944C183.515 17.8477 183.181 17.898 182.855 17.9453C182.53 17.9867 182.258 18.0223 182.039 18.0518C181.524 18.117 181.053 18.2264 180.627 18.3803C180.207 18.5342 179.869 18.7562 179.615 19.0462C179.366 19.3303 179.242 19.709 179.242 20.1825C179.242 20.8395 179.485 21.3366 179.97 21.674C180.455 22.0054 181.074 22.1712 181.826 22.1712ZM197.391 24.2752C196.047 24.2752 194.89 23.9882 193.919 23.4141C192.955 22.834 192.209 22.0202 191.682 20.9727C191.161 19.9192 190.901 18.6851 190.901 17.2706C190.901 15.8738 191.161 14.6428 191.682 13.5774C192.209 12.5121 192.943 11.6805 193.884 11.0827C194.831 10.485 195.938 10.1861 197.204 10.1861C197.974 10.1861 198.719 10.3133 199.441 10.5678C200.163 10.8223 200.812 11.2218 201.386 11.7663C201.96 12.3108 202.412 13.0181 202.744 13.8881C203.075 14.7522 203.241 15.8028 203.241 17.0398V17.9808H192.401V15.9922H200.64C200.64 15.2938 200.498 14.6753 200.214 14.1367C199.93 13.5922 199.53 13.1631 199.015 12.8494C198.506 12.5357 197.908 12.3789 197.222 12.3789C196.476 12.3789 195.825 12.5624 195.269 12.9293C194.718 13.2904 194.292 13.7638 193.99 14.3498C193.694 14.9298 193.546 15.5601 193.546 16.2408V17.7944C193.546 18.7058 193.706 19.4812 194.026 20.1204C194.351 20.7596 194.804 21.2479 195.384 21.5852C195.964 21.9167 196.642 22.0824 197.417 22.0824C197.92 22.0824 198.379 22.0114 198.793 21.8693C199.208 21.7214 199.566 21.5024 199.867 21.2124C200.169 20.9223 200.4 20.5643 200.56 20.1381L203.072 20.5909C202.871 21.3307 202.51 21.9788 201.989 22.5352C201.474 23.0856 200.826 23.5147 200.045 23.8224C199.27 24.1243 198.385 24.2752 197.391 24.2752ZM204.983 12.6541V10.3636H216.489V12.6541H212.041V24H209.449V12.6541H204.983ZM229.686 24L224.643 5.81818H227.529L231.071 19.8984H231.24L234.924 5.81818H237.783L241.467 19.9073H241.636L245.169 5.81818H248.063L243.012 24H240.251L236.424 10.3814H236.282L232.456 24H229.686ZM254.886 24.2752C253.542 24.2752 252.385 23.9882 251.414 23.4141C250.45 22.834 249.704 22.0202 249.177 20.9727C248.656 19.9192 248.396 18.6851 248.396 17.2706C248.396 15.8738 248.656 14.6428 249.177 13.5774C249.704 12.5121 250.438 11.6805 251.379 11.0827C252.326 10.485 253.433 10.1861 254.699 10.1861C255.469 10.1861 256.214 10.3133 256.936 10.5678C257.659 10.8223 258.307 11.2218 258.881 11.7663C259.455 12.3108 259.908 13.0181 260.239 13.8881C260.57 14.7522 260.736 15.8028 260.736 17.0398V17.9808H249.896V15.9922H258.135C258.135 15.2938 257.993 14.6753 257.709 14.1367C257.425 13.5922 257.025 13.1631 256.51 12.8494C256.001 12.5357 255.404 12.3789 254.717 12.3789C253.971 12.3789 253.32 12.5624 252.764 12.9293C252.213 13.2904 251.787 13.7638 251.485 14.3498C251.19 14.9298 251.042 15.5601 251.042 16.2408V17.7944C251.042 18.7058 251.201 19.4812 251.521 20.1204C251.847 20.7596 252.299 21.2479 252.879 21.5852C253.459 21.9167 254.137 22.0824 254.912 22.0824C255.415 22.0824 255.874 22.0114 256.288 21.8693C256.703 21.7214 257.061 21.5024 257.363 21.2124C257.664 20.9223 257.895 20.5643 258.055 20.1381L260.568 20.5909C260.366 21.3307 260.005 21.9788 259.484 22.5352C258.97 23.0856 258.321 23.5147 257.54 23.8224C256.765 24.1243 255.88 24.2752 254.886 24.2752ZM267.65 24.3018C266.786 24.3018 266.004 24.142 265.306 23.8224C264.608 23.4969 264.054 23.0264 263.646 22.4109C263.243 21.7953 263.042 21.0407 263.042 20.147C263.042 19.3776 263.19 18.7443 263.486 18.2472C263.782 17.75 264.182 17.3564 264.685 17.0664C265.188 16.7764 265.75 16.5574 266.371 16.4094C266.993 16.2615 267.626 16.149 268.271 16.0721C269.088 15.9774 269.751 15.9004 270.26 15.8413C270.769 15.7762 271.139 15.6726 271.37 15.5305C271.6 15.3885 271.716 15.1577 271.716 14.8381V14.7759C271.716 14.0006 271.497 13.3999 271.059 12.9737C270.627 12.5476 269.982 12.3345 269.124 12.3345C268.23 12.3345 267.526 12.5328 267.011 12.9293C266.502 13.32 266.149 13.755 265.954 14.2344L263.459 13.6662C263.755 12.8376 264.187 12.1688 264.756 11.6598C265.33 11.1449 265.99 10.772 266.735 10.5412C267.481 10.3045 268.265 10.1861 269.088 10.1861C269.633 10.1861 270.21 10.2512 270.819 10.3814C271.435 10.5057 272.009 10.7365 272.542 11.0739C273.08 11.4112 273.521 11.8936 273.864 12.521C274.208 13.1424 274.379 13.9503 274.379 14.9446V24H271.787V22.1357H271.68C271.509 22.4789 271.251 22.8163 270.908 23.1477C270.565 23.4792 270.124 23.7544 269.585 23.9734C269.047 24.1924 268.401 24.3018 267.65 24.3018ZM268.227 22.1712C268.961 22.1712 269.588 22.0262 270.109 21.7362C270.636 21.4461 271.035 21.0674 271.307 20.5998C271.586 20.1263 271.725 19.6203 271.725 19.0817V17.3239C271.63 17.4186 271.447 17.5073 271.174 17.5902C270.908 17.6671 270.603 17.7352 270.26 17.7944C269.917 17.8477 269.582 17.898 269.257 17.9453C268.931 17.9867 268.659 18.0223 268.44 18.0518C267.925 18.117 267.455 18.2264 267.028 18.3803C266.608 18.5342 266.271 18.7562 266.016 19.0462C265.768 19.3303 265.643 19.709 265.643 20.1825C265.643 20.8395 265.886 21.3366 266.371 21.674C266.857 22.0054 267.475 22.1712 268.227 22.1712ZM277.915 29.1136V10.3636H280.507V12.5742H280.729C280.883 12.2901 281.105 11.9616 281.395 11.5888C281.685 11.2159 282.087 10.8904 282.602 10.6122C283.117 10.3281 283.798 10.1861 284.644 10.1861C285.745 10.1861 286.728 10.4643 287.592 11.0206C288.456 11.5769 289.133 12.3789 289.625 13.4265C290.122 14.4741 290.37 15.7347 290.37 17.2085C290.37 18.6822 290.125 19.9458 289.634 20.9993C289.142 22.0469 288.468 22.8548 287.609 23.4229C286.751 23.9852 285.772 24.2663 284.671 24.2663C283.842 24.2663 283.165 24.1272 282.638 23.8491C282.117 23.5709 281.709 23.2454 281.413 22.8725C281.117 22.4996 280.889 22.1682 280.729 21.8782H280.569V29.1136H277.915ZM280.516 17.1818C280.516 18.1406 280.655 18.9811 280.933 19.7031C281.211 20.4252 281.614 20.9904 282.141 21.3988C282.667 21.8013 283.313 22.0025 284.076 22.0025C284.869 22.0025 285.532 21.7924 286.065 21.3722C286.597 20.946 287 20.369 287.272 19.641C287.55 18.913 287.689 18.0933 287.689 17.1818C287.689 16.2822 287.553 15.4743 287.281 14.7582C287.015 14.042 286.612 13.4768 286.074 13.0625C285.541 12.6482 284.875 12.4411 284.076 12.4411C283.307 12.4411 282.656 12.6393 282.123 13.0359C281.596 13.4324 281.197 13.9858 280.924 14.696C280.652 15.4062 280.516 16.2348 280.516 17.1818ZM299.088 24.2752C297.81 24.2752 296.694 23.9822 295.742 23.3963C294.789 22.8104 294.049 21.9906 293.522 20.9371C292.995 19.8836 292.732 18.6526 292.732 17.244C292.732 15.8294 292.995 14.5924 293.522 13.533C294.049 12.4736 294.789 11.6509 295.742 11.065C296.694 10.479 297.81 10.1861 299.088 10.1861C300.367 10.1861 301.483 10.479 302.435 11.065C303.388 11.6509 304.128 12.4736 304.655 13.533C305.182 14.5924 305.445 15.8294 305.445 17.244C305.445 18.6526 305.182 19.8836 304.655 20.9371C304.128 21.9906 303.388 22.8104 302.435 23.3963C301.483 23.9822 300.367 24.2752 299.088 24.2752ZM299.097 22.0469C299.926 22.0469 300.612 21.8279 301.157 21.3899C301.702 20.9519 302.104 20.369 302.364 19.641C302.631 18.913 302.764 18.111 302.764 17.2351C302.764 16.3651 302.631 15.5661 302.364 14.8381C302.104 14.1042 301.702 13.5153 301.157 13.0714C300.612 12.6275 299.926 12.4055 299.097 12.4055C298.263 12.4055 297.57 12.6275 297.02 13.0714C296.475 13.5153 296.07 14.1042 295.804 14.8381C295.543 15.5661 295.413 16.3651 295.413 17.2351C295.413 18.111 295.543 18.913 295.804 19.641C296.07 20.369 296.475 20.9519 297.02 21.3899C297.57 21.8279 298.263 22.0469 299.097 22.0469ZM311.062 15.9034V24H308.408V10.3636H310.956V12.5831H311.125C311.438 11.861 311.93 11.281 312.598 10.843C313.273 10.4051 314.122 10.1861 315.146 10.1861C316.075 10.1861 316.889 10.3814 317.588 10.772C318.286 11.1567 318.828 11.7308 319.212 12.4943C319.597 13.2578 319.789 14.2018 319.789 15.3263V24H317.135V15.646C317.135 14.6576 316.877 13.8852 316.363 13.3288C315.848 12.7666 315.14 12.4854 314.241 12.4854C313.625 12.4854 313.078 12.6186 312.598 12.8849C312.125 13.1513 311.749 13.5419 311.471 14.0568C311.199 14.5658 311.062 15.1813 311.062 15.9034ZM336.065 24H330.179V5.81818H336.251C338.033 5.81818 339.563 6.18217 340.841 6.91016C342.119 7.63222 343.099 8.67093 343.78 10.0263C344.466 11.3757 344.809 12.9944 344.809 14.8825C344.809 16.7764 344.463 18.404 343.771 19.7653C343.084 21.1265 342.09 22.1741 340.788 22.908C339.486 23.636 337.911 24 336.065 24ZM332.922 21.603H335.914C337.299 21.603 338.45 21.3426 339.367 20.8217C340.285 20.295 340.971 19.5344 341.427 18.5401C341.883 17.5399 342.11 16.3207 342.11 14.8825C342.11 13.4561 341.883 12.2457 341.427 11.2514C340.977 10.2571 340.305 9.50248 339.412 8.98757C338.518 8.47266 337.408 8.2152 336.082 8.2152H332.922V21.603ZM353.885 24.2752C352.541 24.2752 351.384 23.9882 350.413 23.4141C349.449 22.834 348.703 22.0202 348.176 20.9727C347.655 19.9192 347.395 18.6851 347.395 17.2706C347.395 15.8738 347.655 14.6428 348.176 13.5774C348.703 12.5121 349.437 11.6805 350.378 11.0827C351.325 10.485 352.432 10.1861 353.698 10.1861C354.468 10.1861 355.213 10.3133 355.936 10.5678C356.658 10.8223 357.306 11.2218 357.88 11.7663C358.454 12.3108 358.907 13.0181 359.238 13.8881C359.569 14.7522 359.735 15.8028 359.735 17.0398V17.9808H348.895V15.9922H357.134C357.134 15.2938 356.992 14.6753 356.708 14.1367C356.424 13.5922 356.024 13.1631 355.509 12.8494C355 12.5357 354.403 12.3789 353.716 12.3789C352.97 12.3789 352.319 12.5624 351.763 12.9293C351.212 13.2904 350.786 13.7638 350.485 14.3498C350.189 14.9298 350.041 15.5601 350.041 16.2408V17.7944C350.041 18.7058 350.2 19.4812 350.52 20.1204C350.846 20.7596 351.298 21.2479 351.878 21.5852C352.458 21.9167 353.136 22.0824 353.911 22.0824C354.414 22.0824 354.873 22.0114 355.287 21.8693C355.702 21.7214 356.06 21.5024 356.362 21.2124C356.663 20.9223 356.894 20.5643 357.054 20.1381L359.567 20.5909C359.365 21.3307 359.004 21.9788 358.483 22.5352C357.969 23.0856 357.32 23.5147 356.539 23.8224C355.764 24.1243 354.879 24.2752 353.885 24.2752ZM369.046 10.3636V12.4943H361.597V10.3636H369.046ZM363.595 7.09659H366.249V19.9961C366.249 20.511 366.326 20.8987 366.48 21.1591C366.634 21.4136 366.832 21.5882 367.075 21.6829C367.324 21.7717 367.593 21.8161 367.883 21.8161C368.096 21.8161 368.282 21.8013 368.442 21.7717C368.602 21.7421 368.726 21.7184 368.815 21.7006L369.294 23.8935C369.141 23.9527 368.922 24.0118 368.637 24.071C368.353 24.1361 367.998 24.1716 367.572 24.1776C366.874 24.1894 366.223 24.0651 365.619 23.8047C365.015 23.5443 364.527 23.1418 364.154 22.5973C363.781 22.0528 363.595 21.3692 363.595 20.5465V7.09659ZM377.713 24.2752C376.369 24.2752 375.212 23.9882 374.242 23.4141C373.277 22.834 372.531 22.0202 372.004 20.9727C371.484 19.9192 371.223 18.6851 371.223 17.2706C371.223 15.8738 371.484 14.6428 372.004 13.5774C372.531 12.5121 373.265 11.6805 374.206 11.0827C375.153 10.485 376.26 10.1861 377.526 10.1861C378.296 10.1861 379.042 10.3133 379.764 10.5678C380.486 10.8223 381.134 11.2218 381.708 11.7663C382.282 12.3108 382.735 13.0181 383.066 13.8881C383.398 14.7522 383.563 15.8028 383.563 17.0398V17.9808H372.723V15.9922H380.962C380.962 15.2938 380.82 14.6753 380.536 14.1367C380.252 13.5922 379.852 13.1631 379.337 12.8494C378.828 12.5357 378.231 12.3789 377.544 12.3789C376.798 12.3789 376.147 12.5624 375.591 12.9293C375.041 13.2904 374.614 13.7638 374.313 14.3498C374.017 14.9298 373.869 15.5601 373.869 16.2408V17.7944C373.869 18.7058 374.029 19.4812 374.348 20.1204C374.674 20.7596 375.126 21.2479 375.706 21.5852C376.286 21.9167 376.964 22.0824 377.739 22.0824C378.243 22.0824 378.701 22.0114 379.116 21.8693C379.53 21.7214 379.888 21.5024 380.19 21.2124C380.492 20.9223 380.722 20.5643 380.882 20.1381L383.395 20.5909C383.193 21.3307 382.832 21.9788 382.312 22.5352C381.797 23.0856 381.149 23.5147 380.367 23.8224C379.592 24.1243 378.707 24.2752 377.713 24.2752ZM392.253 24.2752C390.933 24.2752 389.796 23.9763 388.843 23.3786C387.896 22.7749 387.168 21.9433 386.659 20.8839C386.15 19.8245 385.896 18.6112 385.896 17.244C385.896 15.859 386.156 14.6368 386.677 13.5774C387.198 12.5121 387.932 11.6805 388.879 11.0827C389.826 10.485 390.942 10.1861 392.226 10.1861C393.262 10.1861 394.185 10.3784 394.996 10.7631C395.807 11.1419 396.461 11.6746 396.958 12.3612C397.461 13.0477 397.76 13.8497 397.854 14.767H395.271C395.129 14.1278 394.803 13.5774 394.294 13.1158C393.791 12.6541 393.117 12.4233 392.27 12.4233C391.53 12.4233 390.882 12.6186 390.326 13.0092C389.776 13.3939 389.347 13.9444 389.039 14.6605C388.731 15.3707 388.577 16.2112 388.577 17.1818C388.577 18.1761 388.728 19.0343 389.03 19.7564C389.332 20.4785 389.758 21.0378 390.308 21.4343C390.865 21.8308 391.519 22.0291 392.27 22.0291C392.773 22.0291 393.229 21.9374 393.637 21.7539C394.052 21.5645 394.398 21.2952 394.676 20.946C394.96 20.5968 395.159 20.1766 395.271 19.6854H397.854C397.76 20.5672 397.473 21.3544 396.993 22.0469C396.514 22.7393 395.872 23.2839 395.067 23.6804C394.268 24.0769 393.33 24.2752 392.253 24.2752ZM407.059 10.3636V12.4943H399.61V10.3636H407.059ZM401.608 7.09659H404.262V19.9961C404.262 20.511 404.339 20.8987 404.493 21.1591C404.647 21.4136 404.845 21.5882 405.088 21.6829C405.336 21.7717 405.606 21.8161 405.896 21.8161C406.109 21.8161 406.295 21.8013 406.455 21.7717C406.615 21.7421 406.739 21.7184 406.828 21.7006L407.307 23.8935C407.153 23.9527 406.934 24.0118 406.65 24.071C406.366 24.1361 406.011 24.1716 405.585 24.1776C404.886 24.1894 404.235 24.0651 403.632 23.8047C403.028 23.5443 402.54 23.1418 402.167 22.5973C401.794 22.0528 401.608 21.3692 401.608 20.5465V7.09659ZM409.995 24V10.3636H412.649V24H409.995ZM411.335 8.25959C410.874 8.25959 410.477 8.1057 410.146 7.79794C409.82 7.48426 409.658 7.11139 409.658 6.67933C409.658 6.24136 409.82 5.86849 410.146 5.56072C410.477 5.24704 410.874 5.0902 411.335 5.0902C411.797 5.0902 412.191 5.24704 412.516 5.56072C412.848 5.86849 413.013 6.24136 413.013 6.67933C413.013 7.11139 412.848 7.48426 412.516 7.79794C412.191 8.1057 411.797 8.25959 411.335 8.25959ZM421.964 24.2752C420.686 24.2752 419.57 23.9822 418.617 23.3963C417.665 22.8104 416.925 21.9906 416.398 20.9371C415.871 19.8836 415.608 18.6526 415.608 17.244C415.608 15.8294 415.871 14.5924 416.398 13.533C416.925 12.4736 417.665 11.6509 418.617 11.065C419.57 10.479 420.686 10.1861 421.964 10.1861C423.243 10.1861 424.359 10.479 425.311 11.065C426.264 11.6509 427.004 12.4736 427.531 13.533C428.058 14.5924 428.321 15.8294 428.321 17.244C428.321 18.6526 428.058 19.8836 427.531 20.9371C427.004 21.9906 426.264 22.8104 425.311 23.3963C424.359 23.9822 423.243 24.2752 421.964 24.2752ZM421.973 22.0469C422.802 22.0469 423.488 21.8279 424.033 21.3899C424.577 20.9519 424.98 20.369 425.24 19.641C425.507 18.913 425.64 18.111 425.64 17.2351C425.64 16.3651 425.507 15.5661 425.24 14.8381C424.98 14.1042 424.577 13.5153 424.033 13.0714C423.488 12.6275 422.802 12.4055 421.973 12.4055C421.139 12.4055 420.446 12.6275 419.896 13.0714C419.351 13.5153 418.946 14.1042 418.68 14.8381C418.419 15.5661 418.289 16.3651 418.289 17.2351C418.289 18.111 418.419 18.913 418.68 19.641C418.946 20.369 419.351 20.9519 419.896 21.3899C420.446 21.8279 421.139 22.0469 421.973 22.0469ZM433.938 15.9034V24H431.284V10.3636H433.832V12.5831H434.001C434.314 11.861 434.806 11.281 435.474 10.843C436.149 10.4051 436.998 10.1861 438.022 10.1861C438.951 10.1861 439.765 10.3814 440.464 10.772C441.162 11.1567 441.704 11.7308 442.088 12.4943C442.473 13.2578 442.665 14.2018 442.665 15.3263V24H440.011V15.646C440.011 14.6576 439.753 13.8852 439.239 13.3288C438.724 12.7666 438.016 12.4854 437.117 12.4854C436.501 12.4854 435.954 12.6186 435.474 12.8849C435.001 13.1513 434.625 13.5419 434.347 14.0568C434.075 14.5658 433.938 15.1813 433.938 15.9034ZM449.128 18.771V18.6023C449.14 17.5014 449.25 16.6255 449.457 15.9744C449.67 15.3234 449.972 14.7966 450.362 14.3942C450.753 13.9917 451.224 13.6248 451.774 13.2933C452.129 13.0684 452.449 12.8169 452.733 12.5387C453.017 12.2605 453.242 11.9409 453.408 11.5799C453.573 11.2189 453.656 10.8194 453.656 10.3814C453.656 9.85464 453.532 9.39891 453.283 9.0142C453.035 8.6295 452.703 8.33357 452.289 8.12642C451.881 7.91335 451.425 7.80682 450.922 7.80682C450.466 7.80682 450.031 7.90151 449.617 8.09091C449.202 8.2803 448.859 8.57623 448.587 8.97869C448.315 9.37524 448.158 9.88719 448.116 10.5146H445.417C445.459 9.44922 445.728 8.5496 446.225 7.8157C446.723 7.07588 447.379 6.51657 448.196 6.13778C449.019 5.759 449.927 5.5696 450.922 5.5696C452.011 5.5696 452.964 5.77379 453.78 6.18217C454.597 6.58463 455.23 7.14986 455.68 7.87784C456.136 8.59991 456.364 9.4433 456.364 10.408C456.364 11.0709 456.26 11.6687 456.053 12.2013C455.846 12.7281 455.55 13.1986 455.165 13.6129C454.787 14.0272 454.331 14.3942 453.798 14.7138C453.295 15.0275 452.887 15.353 452.573 15.6903C452.265 16.0277 452.04 16.4272 451.898 16.8888C451.756 17.3505 451.679 17.9216 451.667 18.6023V18.771H449.128ZM450.469 24.1687C449.984 24.1687 449.566 23.997 449.217 23.6538C448.868 23.3046 448.693 22.8844 448.693 22.3931C448.693 21.9078 448.868 21.4935 449.217 21.1502C449.566 20.801 449.984 20.6264 450.469 20.6264C450.948 20.6264 451.363 20.801 451.712 21.1502C452.067 21.4935 452.245 21.9078 452.245 22.3931C452.245 22.7186 452.162 23.0175 451.996 23.2898C451.836 23.5561 451.623 23.7692 451.357 23.929C451.09 24.0888 450.794 24.1687 450.469 24.1687Z" fill="#ADADAD"/>
</svg>
